<?xml version="1.0" encoding="UTF-8"?>
<svg width="1191px" height="842px" viewBox="0 0 1191 842" version="1.1" xmlns="http://www.w3.org/2000/svg" xmlns:xlink="http://www.w3.org/1999/xlink">
    <title>Business Model Canvas</title>
    <defs>
        <polygon id="path-1" points="-1.42108547e-14 0 18.763 0 18.763 18.763 -1.42108547e-14 18.763"></polygon>
        <polygon id="path-3" points="0 0 18.763 0 18.763 18.763 0 18.763"></polygon>
        <polygon id="path-5" points="0 0 18.763 0 18.763 18.763 0 18.763"></polygon>
        <polygon id="path-7" points="0 0 18.763 0 18.763 18.763 0 18.763"></polygon>
        <polygon id="path-9" points="7.10542736e-15 0 18.763 0 18.763 18.763 7.10542736e-15 18.763"></polygon>
    </defs>
    <g id="Business-Model-Canvas" stroke="none" stroke-width="1" fill="none" fill-rule="evenodd">
        <g id="Group-17" transform="translate(-17.008000, -21.259000)">
            <polygon id="Fill-1" fill="#ECECEB" points="3.90798505e-14 884.409 1224.567 884.409 1224.567 0 3.90798505e-14 0"></polygon>
            <polygon id="Fill-2" fill="#FFFFFE" points="55.2451 114.649 55.2451 761.871 55.2451 764.108 57.4821 764.108 1167.1061 764.108 1169.3431 764.108 1169.3431 761.871 1169.3431 114.649 1169.3431 112.412 1167.1061 112.412 57.4821 112.412 55.2451 112.412"></polygon>
            <polygon id="Stroke-3" stroke="#1A1919" stroke-width="4.474" points="55.2451 114.649 55.2451 761.871 55.2451 764.108 57.4821 764.108 1167.1061 764.108 1169.3431 764.108 1169.3431 761.871 1169.3431 114.649 1169.3431 112.412 1167.1061 112.412 57.4821 112.412 55.2451 112.412"></polygon>
            <line x1="55.4081" y1="585.8733" x2="1169.1591" y2="585.8733" id="Stroke-4" stroke="#1A1919" stroke-width="1.978"></line>
            <line x1="279.8259" y1="586.8594" x2="279.8259" y2="110.1744" id="Stroke-5" stroke="#1A1919" stroke-width="1.978"></line>
            <line x1="501.0478" y1="586.858" x2="501.0478" y2="110.175" id="Stroke-6" stroke="#1A1919" stroke-width="1.978"></line>
            <line x1="722.2698" y1="586.8594" x2="722.2698" y2="110.1744" id="Stroke-7" stroke="#1A1919" stroke-width="1.978"></line>
            <line x1="943.4919" y1="586.8594" x2="943.4919" y2="110.1744" id="Stroke-8" stroke="#1A1919" stroke-width="1.978"></line>
            <line x1="278.8889" y1="348.937" x2="502.0369" y2="348.937" id="Stroke-9" stroke="#1A1919" stroke-width="1.978"></line>
            <line x1="610.1742" y1="763.7314" x2="610.1742" y2="585.3754" id="Stroke-10" stroke="#1A1919" stroke-width="1.978"></line>
            <line x1="721.2809" y1="348.937" x2="944.4289" y2="348.937" id="Stroke-11" stroke="#1A1919" stroke-width="1.978"></line>
            <text id="The-Business-Model-Canvas" font-family="LucidaGrande, Lucida Grande" font-size="28" font-weight="normal" fill="#1A1919">
                <tspan x="54.2835" y="86.8267375">The Business Model Ca</tspan>
                <tspan x="366.385063" y="86.8267375" letter-spacing="-0.1428">n</tspan>
                <tspan x="383.619216" y="86.8267375">vas</tspan>
            </text>
            <polygon id="Fill-12" fill="#FFFFFE" points="981.167 93.598 1082.262 93.598 1082.262 57.384 981.167 57.384"></polygon>
            <polygon id="Fill-13" fill="#FFFFFE" points="500.19 93.598 722.14 93.598 722.14 57.384 500.19 57.384"></polygon>
            <polygon id="Fill-14" fill="#FFFFFE" points="500.19 93.598 722.14 93.598 722.14 57.384 500.19 57.384"></polygon>
            <polygon id="Fill-15" fill="#FFFFFE" points="1089.51 93.598 1171.283 93.598 1171.283 57.384 1089.51 57.384"></polygon>
            <polygon id="Fill-16" fill="#FFFFFE" points="731.796 93.598 974.258 93.598 974.258 57.384 731.796 57.384"></polygon>
        </g>
        <text id="DESIGNED-BY:" font-family="LucidaGrande-Bold, Lucida Grande" font-size="8.5" font-weight="bold" fill="#1A1919">
            <tspan x="35.5691" y="794.460058">DESIGNED BY:</tspan>
        </text>
        <text id="Strategyzer-AG" font-family="LucidaGrande, Lucida Grande" font-size="8.5" font-weight="normal" letter-spacing="0.021" fill="#1A1919">
            <tspan x="98.55" y="794.460058">S</tspan>
            <tspan x="103.148881" y="794.460058" letter-spacing="0.0329">t</tspan>
            <tspan x="106.36098" y="794.460058" letter-spacing="0.089">r</tspan>
            <tspan x="109.928007" y="794.460058" letter-spacing="-0.10735">a</tspan>
            <tspan x="114.514749" y="794.460058" letter-spacing="-0.115">t</tspan>
            <tspan x="117.578948" y="794.460058" letter-spacing="0.0652">e</tspan>
            <tspan x="122.379744" y="794.460058" letter-spacing="0.0414">g</tspan>
            <tspan x="127.721193" y="794.460058" letter-spacing="0.1332">y</tspan>
            <tspan x="132.295311" y="794.460058" letter-spacing="-0.1388">z</tspan>
            <tspan x="137.02907" y="794.460058">e</tspan>
            <tspan x="141.785665" y="794.460058" letter-spacing="-0.0725">r</tspan>
            <tspan x="145.191193" y="794.460058"> </tspan>
            <tspan x="147.901646" y="794.460058" letter-spacing="-0.18045">A</tspan>
            <tspan x="153.585698" y="794.460058">G</tspan>
        </text>
        <text id="The-makers-of-Business-Model-Generation-and-Strategyzer" font-family="LucidaGrande, Lucida Grande" font-size="7" font-weight="normal" letter-spacing="0.1591" fill="#1A1919">
            <tspan x="36" y="804.645859">T</tspan>
            <tspan x="40.5853695" y="804.645859" letter-spacing="0.1269">h</tspan>
            <tspan x="45.0565078" y="804.645859" letter-spacing="0.01">e </tspan>
            <tspan x="51.1912539" y="804.645859" letter-spacing="0.1346">m</tspan>
            <tspan x="57.8610102" y="804.645859" letter-spacing="0.2424">a</tspan>
            <tspan x="61.9691328" y="804.645859" letter-spacing="0.0275">k</tspan>
            <tspan x="66.0879414" y="804.645859" letter-spacing="0.1605">e</tspan>
            <tspan x="70.1483438" y="804.645859" letter-spacing="0.1969">r</tspan>
            <tspan x="73.2095016" y="804.645859" letter-spacing="0.01">s </tspan>
            <tspan x="79.0127047" y="804.645859" letter-spacing="0.0625">o</tspan>
            <tspan x="83.3750094" y="804.645859" letter-spacing="0.01">f </tspan>
            <tspan x="88.1835836" y="804.645859" letter-spacing="0.1913">B</tspan>
            <tspan x="92.4012508" y="804.645859" letter-spacing="0.136">u</tspan>
            <tspan x="96.8814891" y="804.645859" letter-spacing="0.1409">s</tspan>
            <tspan x="100.590748" y="804.645859" letter-spacing="0.1465">i</tspan>
            <tspan x="102.760686" y="804.645859" letter-spacing="0.1269">n</tspan>
            <tspan x="107.231824" y="804.645859" letter-spacing="0.1843">e</tspan>
            <tspan x="111.316027" y="804.645859" letter-spacing="0.2298">s</tspan>
            <tspan x="115.114186" y="804.645859" letter-spacing="0.01">s </tspan>
            <tspan x="120.917389" y="804.645859" letter-spacing="0.1381">M</tspan>
            <tspan x="127.084786" y="804.645859" letter-spacing="0.1654">o</tspan>
            <tspan x="131.549991" y="804.645859" letter-spacing="0.136">d</tspan>
            <tspan x="136.091752" y="804.645859" letter-spacing="0.1633">e</tspan>
            <tspan x="140.154955" y="804.645859" letter-spacing="0.01">l </tspan>
            <tspan x="144.413236" y="804.645859" letter-spacing="0.2053">G</tspan>
            <tspan x="149.67713" y="804.645859" letter-spacing="0.1605">e</tspan>
            <tspan x="153.737532" y="804.645859" letter-spacing="0.1269">n</tspan>
            <tspan x="158.20867" y="804.645859" letter-spacing="0.1605">e</tspan>
            <tspan x="162.269073" y="804.645859" letter-spacing="0.22">r</tspan>
            <tspan x="165.35333" y="804.645859" letter-spacing="0.0541">a</tspan>
            <tspan x="169.273153" y="804.645859" letter-spacing="0.1941">t</tspan>
            <tspan x="172.085417" y="804.645859" letter-spacing="0.1234">i</tspan>
            <tspan x="174.232255" y="804.645859" letter-spacing="0.1472">o</tspan>
            <tspan x="178.679259" y="804.645859" letter-spacing="0.01">n </tspan>
            <tspan x="185.258341" y="804.645859" letter-spacing="0.2424">a</tspan>
            <tspan x="189.366464" y="804.645859" letter-spacing="0.1269">n</tspan>
            <tspan x="193.837602" y="804.645859" letter-spacing="0.01">d </tspan>
            <tspan x="200.478208" y="804.645859" letter-spacing="0.1605">S</tspan>
            <tspan x="204.408727" y="804.645859" letter-spacing="0.1941">t</tspan>
            <tspan x="207.220991" y="804.645859" letter-spacing="0.22">r</tspan>
            <tspan x="210.305249" y="804.645859" letter-spacing="0.0541">a</tspan>
            <tspan x="214.225072" y="804.645859" letter-spacing="0.0877">t</tspan>
            <tspan x="216.930936" y="804.645859" letter-spacing="0.1878">e</tspan>
            <tspan x="221.018638" y="804.645859" letter-spacing="0.1815">g</tspan>
            <tspan x="225.564884" y="804.645859" letter-spacing="0.2417">y</tspan>
            <tspan x="229.463811" y="804.645859" letter-spacing="0.0562">z</tspan>
            <tspan x="233.532706" y="804.645859" letter-spacing="0.1605">e</tspan>
            <tspan x="237.593109" y="804.645859" letter-spacing="0.01">r</tspan>
        </text>
        <text id="strategyzer.com" font-family="LucidaGrande, Lucida Grande" font-size="12" font-weight="normal" fill="#1A1919">
            <tspan x="1062.1764" y="803.706987">st</tspan>
            <tspan x="1072.78187" y="803.706987" letter-spacing="-0.12">r</tspan>
            <tspan x="1077.57203" y="803.706987">ateg</tspan>
            <tspan x="1102.85523" y="803.706987" letter-spacing="-0.4812">y</tspan>
            <tspan x="1108.64356" y="803.706987" letter-spacing="-0.06">z</tspan>
            <tspan x="1115.46247" y="803.706987">e</tspan>
            <tspan x="1122.14801" y="803.706987" letter-spacing="-0.84">r</tspan>
            <tspan x="1126.21817" y="803.706987" letter-spacing="0.12">.</tspan>
            <tspan x="1130.13504" y="803.706987" letter-spacing="-0.072">c</tspan>
            <tspan x="1136.20953" y="803.706987">om</tspan>
        </text>
        <g id="Group-86" transform="translate(58.126200, 40.367156)">
            <polygon id="Fill-51" fill="#0A0B09" points="618.4278 86.1058437 627.1698 86.1058437 627.1698 74.4048437 618.4278 74.4048437"></polygon>
            <polygon id="Fill-52" fill="#0A0B09" points="628.4318 86.1058437 637.1738 86.1058437 637.1738 74.4048437 628.4318 74.4048437"></polygon>
            <path d="M628.3128,68.4950437 L625.2778,68.4950437 C623.5538,68.4950437 622.2028,67.1550437 622.2028,65.4440437 C622.2028,63.7340437 623.5418,62.3940437 625.2518,62.3940437 C626.9688,62.3940437 628.3128,63.7390437 628.3128,65.4570437 L628.3128,68.4950437 Z M625.2518,63.6560437 C624.2498,63.6560437 623.4658,64.4420437 623.4658,65.4440437 C623.4658,66.4470437 624.2618,67.2330437 625.2778,67.2330437 L627.0508,67.2330437 L627.0508,65.4570437 C627.0508,64.4470437 626.2608,63.6560437 625.2518,63.6560437 L625.2518,63.6560437 Z" id="Fill-53" fill="#0A0B09"></path>
            <path d="M630.2027,68.4950437 L627.1677,68.4950437 L627.1677,65.4570437 C627.1677,63.7390437 628.5127,62.3940437 630.2287,62.3940437 C631.9387,62.3940437 633.2777,63.7340437 633.2777,65.4440437 C633.2777,67.1550437 631.9267,68.4950437 630.2027,68.4950437 L630.2027,68.4950437 Z M628.4307,67.2330437 L630.2027,67.2330437 C631.2187,67.2330437 632.0147,66.4470437 632.0147,65.4440437 C632.0147,64.4420437 631.2307,63.6560437 630.2287,63.6560437 C629.2207,63.6560437 628.4307,64.4470437 628.4307,65.4570437 L628.4307,67.2330437 Z" id="Fill-54" fill="#0A0B09"></path>
            <polygon id="Fill-55" fill="#0A0B09" points="617.3458 73.0948437 627.1698 73.0948437 627.1698 69.4898437 617.3458 69.4898437"></polygon>
            <polygon id="Fill-56" fill="#0A0B09" points="628.4318 73.0948437 637.8948 73.0948437 637.8948 69.4898437 628.4318 69.4898437"></polygon>
            <path d="M186.7149,63.5716437 L182.9749,67.3116437 C182.5729,67.7136437 182.2509,68.1656437 182.0059,68.6466437 C182.9219,68.4656437 183.8699,68.4996437 184.7739,68.7426437 L188.3299,65.1866437 C189.5049,64.0116437 191.4159,64.0116437 192.5909,65.1866437 C193.7659,66.3616437 193.7659,68.2726437 192.5909,69.4476437 L188.8509,73.1886437 C187.6759,74.3626437 185.7649,74.3626437 184.5899,73.1876437 C184.3919,72.9896437 184.2399,72.7666437 184.1089,72.5336437 C183.3389,72.1906437 182.4209,72.3056437 181.7499,72.8706437 C182.0059,73.5756437 182.4109,74.2386437 182.9749,74.8026437 C185.0399,76.8676437 188.4009,76.8676437 190.4659,74.8026437 L194.2059,71.0626437 C196.2709,68.9976437 196.2709,65.6366437 194.2059,63.5716437 C192.1409,61.5066437 188.7799,61.5056437 186.7149,63.5716437" id="Fill-57" fill="#0A0B09"></path>
            <path d="M185.1402,76.8988437 L181.5832,80.4558437 C180.4092,81.6298437 178.4972,81.6298437 177.3232,80.4548438 C176.1482,79.2798437 176.1482,77.3688437 177.3222,76.1938437 L181.0622,72.4538437 C182.2372,71.2788437 184.1492,71.2788437 185.3242,72.4538437 C185.5212,72.6508437 185.6732,72.8748437 185.8042,73.1068437 C186.5752,73.4508437 187.4932,73.3358437 188.1632,72.7708437 C187.9082,72.0658437 187.5032,71.4028437 186.9392,70.8388438 C184.8732,68.7738437 181.5132,68.7738437 179.4472,70.8388438 L175.7072,74.5788437 C173.6422,76.6438437 173.6422,80.0048437 175.7082,82.0698438 C177.7732,84.1348437 181.1332,84.1358437 183.1982,82.0708437 L186.9392,78.3298438 C187.3412,77.9278437 187.6622,77.4758437 187.9082,76.9948437 C186.9922,77.1768437 186.0442,77.1418438 185.1402,76.8988437" id="Fill-58" fill="#0A0B09"></path>
            <path d="M414.1145,306.102944 L410.6595,306.102944 C410.4235,308.715944 410.1915,309.757944 409.9585,312.326944 C410.5385,312.504944 413.3865,312.552944 414.7885,312.409944 C414.6235,309.809944 414.3305,308.755944 414.1145,306.102944" id="Fill-59" fill="#0A0B09"></path>
            <path d="M415.7732,321.467444 C415.7552,321.149444 415.7212,320.838444 415.7212,320.528444 C415.7172,317.783444 415.7182,317.288444 415.7182,314.543444 L415.7182,313.594444 L408.2192,313.594444 C408.2022,313.063444 408.1832,312.616444 408.1752,312.168444 C408.1682,311.742444 408.1742,311.316444 408.1742,310.744444 C406.4432,311.642444 404.8192,312.487444 403.0702,313.395444 L403.0702,310.712444 C402.1622,311.199444 401.2862,311.667444 400.4162,312.133444 C400.4482,312.363444 400.4712,312.596444 400.4712,312.835444 C400.4712,314.280444 399.8592,315.585444 398.8832,316.506444 C401.4842,317.248444 403.3932,319.646444 403.3932,322.482444 L403.3932,323.359444 L403.3932,323.493444 L416.9252,323.492444 L416.9252,321.593444 C416.5832,321.555444 416.2232,321.517444 415.7732,321.467444" id="Fill-60" fill="#0A0B09"></path>
            <path d="M412.6853,304.733144 C412.5893,303.892144 412.5613,303.212144 412.8023,302.917144 C412.9873,302.637144 413.3213,302.317144 413.7903,301.728144 C414.0103,301.436144 414.2593,301.088144 414.4423,300.636144 C414.6243,300.193144 414.7203,299.614144 414.5923,299.095144 C414.3133,298.040144 413.5243,297.508144 412.6853,297.300144 C412.7723,298.139144 412.8533,298.831144 412.6563,299.188144 C412.4963,299.509144 412.2453,299.764144 411.8113,300.325144 C411.6073,300.597144 411.3693,300.913144 411.1683,301.326144 C410.9703,301.730144 410.8113,302.267144 410.8753,302.812144 C411.0343,303.940144 411.8543,304.533144 412.6853,304.733144" id="Fill-61" fill="#0A0B09"></path>
            <path d="M395.427,316.343444 C397.364,316.343444 398.935,314.773444 398.935,312.835444 C398.935,310.898444 397.364,309.327444 395.427,309.327444 C393.49,309.327444 391.919,310.898444 391.919,312.835444 C391.919,314.773444 393.49,316.343444 395.427,316.343444" id="Fill-62" fill="#0A0B09"></path>
            <path d="M388.7036,323.359044 L401.8576,323.359044 L401.8576,322.482044 C401.8576,319.910044 399.7536,317.805044 397.1806,317.805044 L393.3806,317.805044 C390.8076,317.805044 388.7036,319.910044 388.7036,322.482044 L388.7036,323.359044 Z" id="Fill-63" fill="#0A0B09"></path>
            <path d="M405.2149,62.2061437 C398.9779,62.2061437 393.9219,67.2621437 393.9219,73.4991437 C393.9219,79.7361437 398.9779,84.7921437 405.2149,84.7921437 C411.4519,84.7921437 416.5079,79.7361437 416.5079,73.4991437 C416.5079,67.2621437 411.4519,62.2061437 405.2149,62.2061437 L405.2149,62.2061437 Z M403.5709,78.8161437 L399.0599,74.3041437 L400.6049,72.7591437 L403.4629,75.6171437 L409.9839,68.1541437 L411.6309,69.5921437 L403.5709,78.8161437 Z" id="Fill-64" fill="#0A0B09"></path>
            <path d="M831.7639,297.708544 L831.7639,309.977544 L830.2969,309.977544 L830.2969,313.444544 L831.7639,313.444544 L833.5659,313.444544 C833.6369,315.356544 835.2099,316.890544 837.1389,316.890544 C839.0679,316.890544 840.6409,315.356544 840.7119,313.444544 L846.0329,313.444544 L847.4999,313.444544 L847.4999,297.708544 L831.7639,297.708544 Z M837.1389,315.331544 C836.0249,315.331544 835.1179,314.424544 835.1179,313.310544 C835.1179,312.196544 836.0249,311.290544 837.1389,311.290544 C838.2529,311.290544 839.1599,312.196544 839.1599,313.310544 C839.1599,314.424544 838.2529,315.331544 837.1389,315.331544 L837.1389,315.331544 Z" id="Fill-65" fill="#0A0B09"></path>
            <path d="M859.3684,306.991244 L854.9384,300.222244 L848.5664,300.222244 L848.5664,313.444244 L850.3274,313.444244 C850.3984,315.356244 851.9724,316.891244 853.9004,316.891244 C855.8304,316.891244 857.4034,315.356244 857.4744,313.444244 L859.3684,313.444244 L859.3684,306.991244 Z M850.6134,302.074244 L853.8204,302.074244 L856.7344,306.527244 L850.6134,306.527244 L850.6134,302.074244 Z M853.9004,315.331244 C852.7864,315.331244 851.8804,314.425244 851.8804,313.311244 C851.8804,312.197244 852.7864,311.290244 853.9004,311.290244 C855.0144,311.290244 855.9214,312.197244 855.9214,313.311244 C855.9214,314.425244 855.0144,315.331244 853.9004,315.331244 L853.9004,315.331244 Z" id="Fill-66" fill="#0A0B09"></path>
            <path d="M523.888,543.753344 C523.22,544.425344 522.136,544.425344 521.465,543.753344 C520.798,543.084344 520.798,541.996344 521.465,541.326344 C522.136,540.655344 523.22,540.655344 523.888,541.326344 C524.557,541.996344 524.557,543.084344 523.888,543.753344 L523.888,543.753344 Z M524.352,539.155344 L517.963,539.155344 L505.975,551.124344 L514.267,559.444344 L526.051,547.620344 L526.051,540.858344 L524.352,539.155344 Z" id="Fill-67" fill="#1A1919"></path>
            <polygon id="Fill-68" fill="#1A1919" points="517.0332 538.218744 517.4182 537.831744 524.3522 537.831744 524.3522 535.940744 522.6572 534.235744 516.2672 534.235744 504.2792 546.206744 506.6472 548.584744"></polygon>
            <path d="M1076.3684,540.394244 L1068.7784,540.394244 C1064.5404,541.935244 1061.4934,545.967244 1061.4594,550.741244 C1061.4154,556.875244 1066.3524,561.884244 1072.4874,561.928244 C1078.6224,561.972244 1083.6314,557.035244 1083.6754,550.900244 C1083.7104,546.075244 1080.6564,541.958244 1076.3684,540.394244" id="Fill-69" fill="#0A0B09"></path>
            <path d="M1075.6892,537.084644 L1076.9312,534.298644 C1075.8402,534.290644 1075.8352,534.901644 1074.7442,534.894644 C1073.6532,534.886644 1073.6572,534.275644 1072.5662,534.267644 C1071.4752,534.259644 1071.4712,534.870644 1070.3802,534.862644 C1069.2892,534.854644 1069.2932,534.243644 1068.2032,534.236644 L1069.4242,537.084644 L1075.6892,537.084644 Z" id="Fill-70" fill="#0A0B09"></path>
            <path d="M1076.5301,538.735744 C1076.5301,539.126744 1076.2101,539.446744 1075.8191,539.446744 L1069.3151,539.446744 C1068.9241,539.446744 1068.6041,539.126744 1068.6041,538.735744 C1068.6041,538.344744 1068.9241,538.024744 1069.3151,538.024744 L1075.8191,538.024744 C1076.2101,538.024744 1076.5301,538.344744 1076.5301,538.735744" id="Fill-71" fill="#0A0B09"></path>
            <path d="M1075.6563,551.198644 C1075.1893,550.739644 1074.4373,550.364644 1073.4003,550.074644 L1073.4153,548.008644 C1073.7063,548.084644 1073.9933,548.192644 1074.2743,548.336644 C1074.5553,548.479644 1074.8333,548.643644 1075.1053,548.828644 L1076.0333,547.234644 C1075.6613,546.966644 1075.2683,546.747644 1074.8553,546.575644 C1074.4413,546.404644 1073.9883,546.280644 1073.4963,546.203644 L1073.5023,545.382644 L1072.0803,545.372644 L1072.0743,546.166644 C1071.6453,546.208644 1071.2523,546.299644 1070.8953,546.437644 C1070.5393,546.576644 1070.2343,546.759644 1069.9823,546.985644 C1069.7293,547.211644 1069.5333,547.479644 1069.3943,547.788644 C1069.2553,548.097644 1069.1853,548.443644 1069.1823,548.826644 L1069.1823,548.853644 C1069.1793,549.255644 1069.2383,549.609644 1069.3593,549.915644 C1069.4793,550.221644 1069.6603,550.489644 1069.9003,550.719644 C1070.1403,550.949644 1070.4443,551.147644 1070.8123,551.314644 C1071.1813,551.481644 1071.6103,551.634644 1072.1023,551.774644 L1072.0863,553.949644 C1071.6763,553.864644 1071.2963,553.727644 1070.9473,553.538644 C1070.5973,553.348644 1070.2363,553.111644 1069.8643,552.825644 L1068.7863,554.377644 C1069.2393,554.727644 1069.7413,555.016644 1070.2923,555.243644 C1070.8413,555.470644 1071.4133,555.623644 1072.0053,555.700644 L1071.9953,556.860644 L1073.4183,556.870644 L1073.4273,555.738644 C1073.8653,555.695644 1074.2633,555.602644 1074.6203,555.459644 C1074.9773,555.316644 1075.2813,555.131644 1075.5333,554.904644 C1075.7863,554.678644 1075.9843,554.411644 1076.1283,554.102644 C1076.2713,553.793644 1076.3453,553.447644 1076.3473,553.064644 L1076.3473,553.036644 C1076.3533,552.270644 1076.1233,551.658644 1075.6563,551.198644 L1075.6563,551.198644 Z M1072.1173,549.722644 C1071.7433,549.583644 1071.4933,549.438644 1071.3673,549.286644 C1071.2403,549.135644 1071.1783,548.955644 1071.1803,548.744644 L1071.1803,548.717644 C1071.1813,548.498644 1071.2583,548.314644 1071.4103,548.165644 C1071.5613,548.016644 1071.8013,547.919644 1072.1293,547.876644 L1072.1173,549.722644 Z M1074.3493,553.159644 C1074.3453,553.642644 1074.0203,553.932644 1073.3723,554.027644 L1073.3853,552.112644 C1073.7583,552.251644 1074.0133,552.397644 1074.1483,552.548644 C1074.2843,552.700644 1074.3513,552.894644 1074.3493,553.131644 L1074.3493,553.159644 Z" id="Fill-72" fill="#FFFFFE"></path>
            <path d="M1076.4888,63.4103437 C1069.8608,60.0993437 1061.9548,62.9453437 1058.8628,69.4753437 L1055.5948,75.7713437 C1055.3398,76.2623437 1055.5338,76.8723437 1056.0248,77.1273437 L1057.9898,78.1473437 C1058.1748,78.9013437 1058.4308,79.6353437 1058.7448,80.3443437 L1065.2578,80.8383437 L1060.2558,82.9213437 C1061.4288,84.4833437 1062.9588,85.8003437 1064.7928,86.7163437 C1071.8458,90.2393437 1080.3468,86.7913437 1082.9538,79.3513437 C1085.1038,73.2153437 1082.3048,66.3153437 1076.4888,63.4103437 M1065.0908,72.3813437 C1064.8368,73.5553437 1063.5068,74.0953437 1062.5078,73.4293437 C1061.9518,73.0593437 1061.6668,72.3573437 1061.8078,71.7053437 C1062.0618,70.5313437 1063.3918,69.9923437 1064.3918,70.6573437 C1064.9468,71.0273437 1065.2318,71.7293437 1065.0908,72.3813437" id="Fill-73" fill="#0A0B09"></path>
            <path d="M937.2316,736.408944 C937.2316,743.564944 931.1726,749.365944 923.6986,749.365944 C916.2236,749.365944 910.1646,743.564944 910.1646,736.408944 C910.1646,732.119944 912.3506,728.329944 915.7036,725.971944 L918.3686,729.450944 C916.1326,731.022944 914.6756,733.548944 914.6756,736.408944 C914.6756,741.179944 918.7156,745.046944 923.6986,745.046944 C928.6806,745.046944 932.7206,741.179944 932.7206,736.408944 C932.7206,733.548944 931.2636,731.022944 929.0276,729.450944 L931.6926,725.971944 C935.0456,728.329944 937.2316,732.119944 937.2316,736.408944 M919.1866,736.408944 C919.1866,738.794944 921.2066,740.727944 923.6986,740.727944 C926.1896,740.727944 928.2096,738.794944 928.2096,736.408944 C928.2096,734.978944 927.4806,733.715944 926.3626,732.929944 L923.6986,736.408944 L921.0336,732.929944 C919.9156,733.715944 919.1866,734.978944 919.1866,736.408944 M918.3686,729.450944 L921.0336,732.929944 C921.7806,732.403944 922.6996,732.089944 923.6986,732.089944 C924.6966,732.089944 925.6156,732.403944 926.3626,732.929944 L929.0276,729.450944 C927.5336,728.399944 925.6946,727.770944 923.6986,727.770944 C921.7016,727.770944 919.8626,728.399944 918.3686,729.450944" id="Fill-74" fill="#1A1919"></path>
            <path d="M955.512,731.703544 L952.201,733.674544 C951.089,732.182544 949.336,731.543544 947.583,731.543544 C946.025,731.543544 944.913,732.076544 944.913,733.221544 C944.913,734.526544 946.693,734.793544 948.696,735.139544 C952.591,735.805544 956.028,737.051544 956.028,740.727544 C956.028,744.083544 953.064,746.486544 948.084,746.486544 C944.05,746.486544 940.962,744.834544 939.487,742.037544 L942.965,740.279544 C944.189,742.276544 946.192,743.023544 948.279,743.023544 C950.226,743.023544 951.506,742.330544 951.506,741.184544 C951.506,739.694544 949.698,739.427544 947.472,739.054544 C943.688,738.415544 940.239,737.259544 940.239,733.529544 C940.239,730.147544 943.473,727.771544 947.758,727.771544 C950.707,727.771544 953.648,729.066544 955.512,731.703544" id="Fill-75" fill="#1A1919"></path>
            <path d="M968.0579,745.046644 C967.0289,745.792644 965.8049,746.486644 964.0519,746.486644 C962.1599,746.486644 960.6849,745.926644 959.8229,744.700644 C959.2109,743.848644 959.0359,742.885644 959.0359,741.447644 L959.0359,734.969644 L956.7799,734.969644 L956.7799,731.370644 L959.0359,731.370644 L959.0359,727.771644 L963.5469,727.771644 L963.5469,731.370644 L967.3059,731.370644 L967.3059,734.969644 L963.5469,734.969644 L963.5469,741.451644 C963.5469,742.543644 964.1319,742.887644 965.0509,742.887644 C965.8019,742.887644 966.1089,742.513644 966.5539,742.167644 L968.0579,745.046644 Z" id="Fill-76" fill="#1A1919"></path>
            <path d="M1006.4027,745.046644 C1005.3737,745.792644 1004.1497,746.486644 1002.3967,746.486644 C1000.5047,746.486644 999.0307,745.926644 998.1677,744.700644 C997.5557,743.848644 997.3807,742.885644 997.3807,741.447644 L997.3807,734.969644 L995.1247,734.969644 L995.1247,731.370644 L997.3807,731.370644 L997.3807,727.771644 L1001.8917,727.771644 L1001.8917,731.370644 L1005.6507,731.370644 L1005.6507,734.969644 L1001.8917,734.969644 L1001.8917,741.451644 C1001.8917,742.543644 1002.4767,742.887644 1003.3957,742.887644 C1004.1467,742.887644 1004.4537,742.513644 1004.8987,742.167644 L1006.4027,745.046644 Z" id="Fill-77" fill="#1A1919"></path>
            <path d="M980.8395,732.809844 C982.8705,731.690844 984.5455,731.369844 986.8545,731.369844 C990.6385,731.369844 993.6215,732.785844 993.6215,736.408844 L993.6215,742.167844 C993.6215,742.833844 993.6225,743.267844 994.1515,743.267844 C994.4295,743.267844 994.9575,743.020844 995.1245,742.886844 L995.3205,745.638844 C994.7355,745.983844 993.5645,746.485844 992.8695,746.485844 C991.4495,746.485844 990.3115,745.558844 989.8665,744.306844 C988.8095,745.718844 987.0755,746.485844 985.3505,746.485844 C982.3185,746.485844 980.0875,745.016844 980.0875,742.167844 C980.0875,738.731844 983.0425,737.340844 985.3505,737.128844 C987.6875,736.914844 989.1105,736.727844 989.1105,735.688844 C989.1105,734.597844 987.7535,734.690844 986.6955,734.690844 C985.1935,734.690844 983.7345,734.808844 982.3435,735.688844 L980.8395,732.809844 Z M989.0875,739.031844 C988.4765,739.725844 987.5295,739.778844 986.3615,739.964844 C985.3045,740.124844 984.2475,740.391844 984.2475,741.669844 C984.2475,742.761844 985.1095,743.267844 986.3335,743.267844 C987.8915,743.267844 989.0875,742.441844 989.0875,740.657844 L989.0875,739.031844 Z" id="Fill-78" fill="#1A1919"></path>
            <path d="M1021.9142,739.858944 L1011.2312,739.858944 C1011.3702,741.802944 1012.8442,742.761944 1014.9872,742.761944 C1016.6832,742.761944 1018.1032,742.121944 1019.0762,741.082944 L1021.8022,743.533944 C1020.1612,745.105944 1017.8722,746.485944 1014.6732,746.485944 C1009.3592,746.485944 1006.4032,742.886944 1006.4032,739.287944 C1006.4032,734.998944 1009.5332,731.369944 1014.4582,731.369944 C1019.1872,731.369944 1022.1922,734.280944 1022.1922,738.567944 C1022.1922,739.020944 1021.9412,739.537944 1021.9142,739.858944 L1021.9142,739.858944 Z M1017.7962,737.087944 C1017.6292,735.303944 1016.2942,734.398944 1014.5422,734.398944 C1012.6772,734.398944 1011.3982,735.463944 1011.2582,737.087944 L1017.7962,737.087944 Z" id="Fill-79" fill="#1A1919"></path>
            <path d="M1086.5742,739.858944 L1075.8912,739.858944 C1076.0302,741.802944 1077.5042,742.761944 1079.6472,742.761944 C1081.3432,742.761944 1082.7632,742.121944 1083.7362,741.082944 L1086.4622,743.533944 C1084.8212,745.105944 1082.5322,746.485944 1079.3332,746.485944 C1074.0192,746.485944 1071.0632,742.886944 1071.0632,739.287944 C1071.0632,734.998944 1074.1932,731.369944 1079.1182,731.369944 C1083.8472,731.369944 1086.8522,734.280944 1086.8522,738.567944 C1086.8522,739.020944 1086.6012,739.537944 1086.5742,739.858944 L1086.5742,739.858944 Z M1082.4562,737.087944 C1082.2892,735.303944 1080.9542,734.398944 1079.2022,734.398944 C1077.3372,734.398944 1076.0582,735.463944 1075.9182,737.087944 L1082.4562,737.087944 Z" id="Fill-80" fill="#1A1919"></path>
            <path d="M1039.4846,743.081144 C1039.4846,745.344144 1039.2176,747.103144 1037.8836,748.515144 C1036.1576,750.326144 1033.4596,750.805144 1030.9556,750.805144 C1028.4236,750.805144 1026.3096,750.299144 1024.4726,749.260144 L1026.0316,746.091144 C1027.2276,746.863144 1028.9526,747.396144 1030.8716,747.396144 C1033.3476,747.396144 1035.2956,746.517144 1035.2956,744.093144 L1035.2956,743.108144 C1034.1546,744.386144 1032.3266,745.046144 1030.4626,745.046144 C1026.4286,745.046144 1023.6956,742.042144 1023.6956,738.234144 C1023.6956,734.398144 1026.4286,731.370144 1030.4626,731.370144 C1032.3536,731.370144 1034.1546,732.028144 1035.2956,733.306144 L1035.2956,731.370144 L1039.4846,731.370144 L1039.4846,743.081144 Z M1031.8456,734.717144 C1029.6196,734.717144 1028.2066,736.209144 1028.2066,738.180144 C1028.2066,740.151144 1029.6196,741.696144 1031.8456,741.696144 C1034.0436,741.696144 1035.3236,740.151144 1035.3236,738.180144 C1035.3236,736.236144 1034.0986,734.717144 1031.8456,734.717144 L1031.8456,734.717144 Z" id="Fill-81" fill="#1A1919"></path>
            <path d="M1050.8175,746.330244 C1049.6215,749.340244 1048.1475,750.805244 1045.1985,750.805244 C1043.7235,750.805244 1042.3885,750.406244 1041.2475,749.660244 L1042.8615,746.943244 C1043.3905,747.289244 1043.9455,747.502244 1044.5585,747.502244 C1045.5035,747.502244 1046.0325,746.970244 1046.4505,746.144244 L1046.8115,745.478244 L1040.9885,731.370244 L1045.4995,731.370244 L1049.0095,740.577244 L1052.2665,731.370244 L1056.7775,731.370244 L1050.8175,746.330244 Z" id="Fill-82" fill="#1A1919"></path>
            <polygon id="Fill-83" fill="#1A1919" points="1056.7774 746.486244 1056.7774 742.974244 1065.0484 734.969244 1057.5294 734.969244 1057.5294 731.370244 1070.3104 731.370244 1070.3104 734.452244 1062.7924 742.167244 1070.3104 742.167244 1070.3104 746.486244"></polygon>
            <path d="M1097.3698,735.805844 C1096.9238,735.565844 1096.3958,735.379844 1095.6998,735.379844 C1093.9198,735.379844 1092.8668,736.791844 1092.8668,738.894844 L1092.8668,745.766844 L1088.3558,745.766844 L1088.3558,731.369844 L1092.8668,731.369844 L1092.8668,733.529844 C1093.7848,732.091844 1095.0398,731.369844 1096.6258,731.369844 C1097.3488,731.369844 1098.0648,731.464844 1098.4818,731.703844 L1097.3698,735.805844 Z" id="Fill-84" fill="#1A1919"></path>
            <path d="M978.5758,735.805844 C978.1298,735.565844 977.6018,735.379844 976.9058,735.379844 C975.1258,735.379844 974.0728,736.791844 974.0728,738.894844 L974.0728,745.766844 L969.5618,745.766844 L969.5618,731.369844 L974.0728,731.369844 L974.0728,733.529844 C974.9908,732.091844 976.2458,731.369844 977.8318,731.369844 C978.5548,731.369844 979.2708,731.464844 979.6878,731.703844 L978.5758,735.805844 Z" id="Fill-85" fill="#1A1919"></path>
            <text id="Revenue-Streams" font-family="LucidaGrande, Lucida Grande" font-size="14" font-weight="normal" fill="#1A1919">
                <tspan x="552.7818" y="552.759462">Revenue Streams</tspan>
            </text>
            <text id="Customer-Segments" font-family="LucidaGrande, Lucida Grande" font-size="14" font-weight="normal" fill="#1A1919">
                <tspan x="886.88" y="76.6434625">Customer Segments</tspan>
            </text>
            <text id="Value-Propositions" font-family="LucidaGrande, Lucida Grande" font-size="14" font-weight="normal" fill="#1A1919">
                <tspan x="442.3469" y="76.6434625">Value Propositions</tspan>
            </text>
            <text id="Key-Activities" font-family="LucidaGrande, Lucida Grande" font-size="14" font-weight="normal" letter-spacing="-0.084" fill="#1A1919">
                <tspan x="220.5175" y="76.6434625">Key Activities</tspan>
            </text>
            <text id="Key-Partners" font-family="LucidaGrande, Lucida Grande" font-size="14" font-weight="normal" fill="#1A1919">
                <tspan x="0.5382" y="76.6434625">Key Partners</tspan>
            </text>
            <text id="Cost-Structure" font-family="LucidaGrande, Lucida Grande" font-size="14" font-weight="normal" letter-spacing="-0.07" fill="#1A1919">
                <tspan x="0" y="552.593462">Cost Structure</tspan>
            </text>
            <text id="Customer-Relationshi" font-family="LucidaGrande, Lucida Grande" font-size="14" font-weight="normal" fill="#1A1919">
                <tspan x="665.0612" y="76.6434625">Customer Relationships</tspan>
            </text>
            <text id="-" font-family="LucidaGrande, Lucida Grande" font-size="10" font-weight="normal" letter-spacing="-0.136"></text>
            <text id="Designed-for:" font-family="LucidaSans, Lucida Sans" font-size="10" font-weight="normal" letter-spacing="0.065" fill="#414241">
                <tspan x="430.9061" y="10"> </tspan>
                <tspan x="434.135162" y="10" letter-spacing="0.012">Designed for:</tspan>
            </text>
            <text id="Designed-by:" font-family="LucidaGrande, Lucida Grande" font-size="10" font-weight="normal" letter-spacing="0.065" fill="#414241">
                <tspan x="664.9061" y="10"> </tspan>
                <tspan x="668.135162" y="10" letter-spacing="0.012">Designed by:</tspan>
            </text>
            <text id="Date:" font-family="LucidaGrande, Lucida Grande" font-size="10" font-weight="normal" letter-spacing="0.065" fill="#414241">
                <tspan x="912.9061" y="10">Date:</tspan>
            </text>
            <text id="Version:" font-family="LucidaGrande, Lucida Grande" font-size="10" font-weight="normal" letter-spacing="0.065" fill="#414241">
                <tspan x="1022.9061" y="10">Version:</tspan>
            </text>
            <text id="Channels" font-family="LucidaGrande, Lucida Grande" font-size="14" font-weight="normal" fill="#1A1919">
                <tspan x="665.0612" y="311.583962">Channels</tspan>
            </text>
            <text id="Key-Resources" font-family="LucidaGrande, Lucida Grande" font-size="14" font-weight="normal" letter-spacing="-0.112" fill="#1A1919">
                <tspan x="220.5175" y="311.583962">Key Resources</tspan>
            </text>
        </g>
        <g id="Group-50" transform="translate(36.000000, 103.389803)">
            <text id="This-work-is-license" font-family="LucidaGrande, Lucida Grande" font-size="5" font-weight="normal" fill="#1A1919">
                <tspan x="112.7092" y="670.195726">This work is licensed under the Creative Commons Attribution-Share Alike 3.0 Unported License. To view a copy of this license, visit:</tspan>
            </text>
            <text id="http://creativecommo" font-family="LucidaGrande, Lucida Grande" font-size="5" font-weight="normal" letter-spacing="-0.215" fill="#1A1919">
                <tspan x="112.7092" y="677.695626">http://creativecommons.org/licenses/by-sa/3.0/ or send a letter to Creative Commons, 171 Second Street, Suite 300, San Francisco, California, 94105, USA.</tspan>
            </text>
            <g id="Group-23" transform="translate(83.092000, 662.680197)">
                <path d="M9.3688,1.4514 C11.5628,1.4514 13.4138,2.2044 14.9198,3.7114 C16.4358,5.2264 17.1938,7.0774 17.1938,9.2624 C17.1938,11.4574 16.4498,13.2844 14.9618,14.7434 C13.3808,16.2974 11.5168,17.0734 9.3688,17.0734 C7.2578,17.0734 5.4258,16.3064 3.8738,14.7714 C2.3388,13.2374 1.5718,11.4014 1.5718,9.2624 C1.5718,7.1234 2.3388,5.2734 3.8738,3.7114 C5.3798,2.2044 7.2118,1.4514 9.3688,1.4514 M9.3968,2.8604 C7.6208,2.8604 6.1188,3.4834 4.8918,4.7294 C3.6178,6.0314 2.9808,7.5424 2.9808,9.2624 C2.9808,10.9924 3.6128,12.4894 4.8778,13.7534 C6.1418,15.0184 7.6488,15.6504 9.3968,15.6504 C11.1358,15.6504 12.6508,15.0134 13.9438,13.7394 C15.1708,12.5584 15.7848,11.0664 15.7848,9.2624 C15.7848,7.4864 15.1618,5.9754 13.9158,4.7294 C12.6698,3.4834 11.1638,2.8604 9.3968,2.8604 M11.4888,7.3234 L11.4888,10.5174 L10.5958,10.5174 L10.5958,14.3114 L8.1688,14.3114 L8.1688,10.5174 L7.2768,10.5174 L7.2768,7.3234 C7.2768,7.1844 7.3258,7.0654 7.4228,6.9674 C7.5208,6.8704 7.6388,6.8214 7.7788,6.8214 L10.9868,6.8214 C11.1168,6.8214 11.2328,6.8704 11.3358,6.9674 C11.4378,7.0654 11.4888,7.1844 11.4888,7.3234 M8.2948,5.3154 C8.2948,4.5804 8.6578,4.2134 9.3828,4.2134 C10.1078,4.2134 10.4708,4.5804 10.4708,5.3154 C10.4708,6.0404 10.1078,6.4034 9.3828,6.4034 C8.6578,6.4034 8.2948,6.0404 8.2948,5.3154" id="Fill-18" fill="#000000"></path>
                <g id="Group-22">
                    <mask id="mask-2" fill="white">
                        <use xlink:href="#path-1"></use>
                    </mask>
                    <g id="Clip-21"></g>
                    <path d="M-2.5583,18.7631 L-10.2343,18.7631 M0.0007,21.3221 L0.0007,28.9971 M-2.5583,0.0001 L-10.2343,0.0001 M0.0007,-2.5579 L0.0007,-10.2339 M21.3217,0.0001 L28.9967,0.0001 M18.7627,-2.5579 L18.7627,-10.2339 M21.3217,18.7631 L28.9967,18.7631 M18.7627,21.3221 L18.7627,28.9971" id="Stroke-20" stroke="#52564E" stroke-width="0.142" mask="url(#mask-2)"></path>
                </g>
            </g>
            <g id="Group-29" transform="translate(0.000000, 662.680197)">
                <path d="M9.3685,1.4514 C11.5535,1.4514 13.4135,2.2144 14.9475,3.7394 C15.6825,4.4734 16.2405,5.3124 16.6215,6.2564 C17.0025,7.2004 17.1935,8.2024 17.1935,9.2624 C17.1935,10.3314 17.0055,11.3334 16.6285,12.2684 C16.2515,13.2024 15.6965,14.0284 14.9615,14.7434 C14.1995,15.4974 13.3345,16.0734 12.3675,16.4734 C11.4005,16.8734 10.4005,17.0734 9.3685,17.0734 C8.3365,17.0734 7.3485,16.8754 6.4045,16.4804 C5.4605,16.0854 4.6145,15.5134 3.8655,14.7644 C3.1175,14.0164 2.5475,13.1724 2.1575,12.2334 C1.7665,11.2944 1.5715,10.3034 1.5715,9.2624 C1.5715,8.2304 1.7685,7.2374 2.1645,6.2844 C2.5595,5.3314 3.1335,4.4784 3.8865,3.7254 C5.3745,2.2094 7.2015,1.4514 9.3685,1.4514 M9.3965,2.8604 C7.6105,2.8604 6.1095,3.4834 4.8915,4.7294 C4.2775,5.3524 3.8055,6.0524 3.4755,6.8284 C3.1455,7.6054 2.9805,8.4164 2.9805,9.2624 C2.9805,10.0994 3.1455,10.9064 3.4755,11.6824 C3.8055,12.4594 4.2775,13.1514 4.8915,13.7604 C5.5045,14.3694 6.1975,14.8344 6.9695,15.1554 C7.7415,15.4764 8.5505,15.6364 9.3965,15.6364 C10.2335,15.6364 11.0445,15.4744 11.8305,15.1484 C12.6155,14.8234 13.3245,14.3534 13.9575,13.7394 C15.1755,12.5494 15.7845,11.0574 15.7845,9.2624 C15.7845,8.3974 15.6265,7.5794 15.3105,6.8074 C14.9945,6.0354 14.5335,5.3474 13.9295,4.7434 C12.6745,3.4874 11.1635,2.8604 9.3965,2.8604 M9.2985,7.9654 L8.2525,8.5094 C8.1405,8.2764 8.0035,8.1144 7.8415,8.0214 C7.6785,7.9284 7.5275,7.8814 7.3875,7.8814 C6.6905,7.8814 6.3415,8.3414 6.3415,9.2624 C6.3415,9.6804 6.4305,10.0154 6.6065,10.2664 C6.7835,10.5174 7.0435,10.6434 7.3875,10.6434 C7.8435,10.6434 8.1645,10.4204 8.3505,9.9734 L9.3125,10.4614 C9.1085,10.8434 8.8245,11.1434 8.4615,11.3614 C8.0995,11.5804 7.6995,11.6894 7.2625,11.6894 C6.5645,11.6894 6.0025,11.4754 5.5745,11.0474 C5.1465,10.6204 4.9325,10.0244 4.9325,9.2624 C4.9325,8.5184 5.1495,7.9284 5.5815,7.4904 C6.0145,7.0544 6.5605,6.8354 7.2205,6.8354 C8.1875,6.8354 8.8805,7.2124 9.2985,7.9654 M13.8035,7.9654 L12.7715,8.5094 C12.6605,8.2764 12.5225,8.1144 12.3605,8.0214 C12.1975,7.9284 12.0415,7.8814 11.8935,7.8814 C11.1955,7.8814 10.8465,8.3414 10.8465,9.2624 C10.8465,9.6804 10.9355,10.0154 11.1115,10.2664 C11.2885,10.5174 11.5485,10.6434 11.8935,10.6434 C12.3485,10.6434 12.6695,10.4204 12.8555,9.9734 L13.8315,10.4614 C13.6175,10.8434 13.3295,11.1434 12.9675,11.3614 C12.6045,11.5804 12.2095,11.6894 11.7815,11.6894 C11.0745,11.6894 10.5095,11.4754 10.0865,11.0474 C9.6635,10.6204 9.4525,10.0244 9.4525,9.2624 C9.4525,8.5184 9.6685,7.9284 10.1005,7.4904 C10.5335,7.0544 11.0795,6.8354 11.7395,6.8354 C12.7065,6.8354 13.3945,7.2124 13.8035,7.9654" id="Fill-24" fill="#000000"></path>
                <g id="Group-28">
                    <mask id="mask-4" fill="white">
                        <use xlink:href="#path-3"></use>
                    </mask>
                    <g id="Clip-27"></g>
                    <path d="M-2.5586,18.7631 L-10.2346,18.7631 M0.0004,21.3221 L0.0004,28.9971 M-2.5586,0.0001 L-10.2346,0.0001 M0.0004,-2.5579 L0.0004,-10.2339 M21.3214,0.0001 L28.9964,0.0001 M18.7624,-2.5579 L18.7624,-10.2339 M21.3214,18.7631 L28.9964,18.7631 M18.7624,21.3221 L18.7624,28.9971" id="Stroke-26" stroke="#52564E" stroke-width="0.142" mask="url(#mask-4)"></path>
                </g>
            </g>
            <g id="Group-35" transform="translate(40.450000, 662.680197)">
                <path d="M9.3683,1.4654 C11.5533,1.4654 13.4033,2.2234 14.9193,3.7394 C16.4353,5.2454 17.1933,7.0914 17.1933,9.2764 C17.1933,11.4614 16.4493,13.2934 14.9613,14.7714 C13.3903,16.3154 11.5253,17.0874 9.3683,17.0874 C7.2573,17.0874 5.4253,16.3204 3.8723,14.7854 C2.3383,13.2514 1.5713,11.4154 1.5713,9.2764 C1.5713,7.1474 2.3383,5.3014 3.8723,3.7394 C5.3883,2.2234 7.2203,1.4654 9.3683,1.4654 L9.3683,1.4654 Z M9.3963,2.8744 C7.6203,2.8744 6.1183,3.5014 4.8913,4.7574 C3.6173,6.0494 2.9803,7.5564 2.9803,9.2764 C2.9803,11.0154 3.6123,12.5124 4.8773,13.7674 C6.1413,15.0324 7.6483,15.6644 9.3963,15.6644 C11.1353,15.6644 12.6503,15.0274 13.9433,13.7534 C15.1703,12.5634 15.7843,11.0714 15.7843,9.2764 C15.7843,7.4904 15.1613,5.9844 13.9153,4.7574 C12.6783,3.5014 11.1723,2.8744 9.3963,2.8744 L9.3963,2.8744 Z M5.9093,8.1744 C6.0583,7.2164 6.4433,6.4754 7.0673,5.9494 C7.6893,5.4244 8.4473,5.1614 9.3403,5.1614 C10.5673,5.1614 11.5443,5.5574 12.2693,6.3474 C12.9943,7.1374 13.3573,8.1514 13.3573,9.3874 C13.3573,10.5874 12.9813,11.5844 12.2273,12.3794 C11.4743,13.1744 10.4983,13.5724 9.2983,13.5724 C8.4153,13.5724 7.6523,13.3074 7.0113,12.7774 C6.3693,12.2474 5.9833,11.4944 5.8533,10.5174 L7.8203,10.5174 C7.8663,11.4664 8.4383,11.9404 9.5353,11.9404 C10.0843,11.9404 10.5263,11.7034 10.8603,11.2294 C11.1953,10.7544 11.3633,10.1224 11.3633,9.3324 C11.3633,8.5044 11.2093,7.8744 10.9023,7.4424 C10.5953,7.0094 10.1543,6.7934 9.5773,6.7934 C8.5363,6.7934 7.9503,7.2534 7.8203,8.1744 L8.3923,8.1744 L6.8433,9.7224 L5.2953,8.1744 L5.9093,8.1744 Z" id="Fill-30" fill="#000000"></path>
                <g id="Group-34">
                    <mask id="mask-6" fill="white">
                        <use xlink:href="#path-5"></use>
                    </mask>
                    <g id="Clip-33"></g>
                    <path d="M-2.5589,18.7631 L-10.2349,18.7631 M0.0001,21.3221 L0.0001,28.9971 M-2.5589,0.0001 L-10.2349,0.0001 M0.0001,-2.5579 L0.0001,-10.2339 M21.3211,0.0001 L28.9961,0.0001 M18.7621,-2.5579 L18.7621,-10.2339 M21.3211,18.7631 L28.9961,18.7631 M18.7621,21.3221 L18.7621,28.9971" id="Stroke-32" stroke="#52564E" stroke-width="0.142" mask="url(#mask-6)"></path>
                </g>
            </g>
            <g id="Group-41" transform="translate(60.674000, 662.680197)">
                <path d="M9.3689,1.4654 C11.5539,1.4654 13.4039,2.2234 14.9199,3.7394 C16.4359,5.2454 17.1939,7.0914 17.1939,9.2764 C17.1939,11.4614 16.4499,13.2934 14.9619,14.7714 C13.3909,16.3154 11.5259,17.0874 9.3689,17.0874 C7.2579,17.0874 5.4259,16.3204 3.8729,14.7854 C2.3389,13.2514 1.5719,11.4154 1.5719,9.2764 C1.5719,7.1474 2.3389,5.3014 3.8729,3.7394 C5.3889,2.2234 7.2209,1.4654 9.3689,1.4654 L9.3689,1.4654 Z M9.3969,2.8744 C7.6209,2.8744 6.1189,3.5014 4.8919,4.7574 C3.6179,6.0494 2.9809,7.5564 2.9809,9.2764 C2.9809,11.0154 3.6129,12.5124 4.8779,13.7674 C6.1419,15.0324 7.6489,15.6644 9.3969,15.6644 C11.1359,15.6644 12.6509,15.0274 13.9439,13.7534 C15.1709,12.5634 15.7849,11.0714 15.7849,9.2764 C15.7849,7.4904 15.1619,5.9844 13.9159,4.7574 C12.6789,3.5014 11.1729,2.8744 9.3969,2.8744 L9.3969,2.8744 Z M14.4879,9.4154 L14.6409,9.4854 L14.6409,11.6894 L14.5019,11.7594 L12.6049,12.5684 L12.5209,12.5954 L12.4239,12.5684 L8.3369,10.8804 L8.1969,10.8244 L6.1749,11.6614 L4.1799,10.7964 L4.1799,8.7884 L6.0489,8.0074 L6.0349,7.9934 L6.0349,5.7894 L8.1549,4.8544 L12.9399,6.8354 L12.9399,8.7744 L14.4879,9.4154 Z M12.2699,11.9824 L12.2699,10.6014 L12.2559,10.6014 L12.2559,10.5454 L8.6719,9.0814 L8.6719,10.5034 L12.2559,11.9824 L12.2559,11.9684 L12.2699,11.9824 Z M12.5069,10.1694 L13.7629,9.6524 L12.6049,9.1644 L11.3769,9.6804 L12.5069,10.1694 Z M14.1529,11.3684 L14.1529,10.0154 L12.7579,10.6014 L12.7579,11.9684 L14.1529,11.3684 Z" id="Fill-36" fill="#000000"></path>
                <g id="Group-40">
                    <mask id="mask-8" fill="white">
                        <use xlink:href="#path-7"></use>
                    </mask>
                    <g id="Clip-39"></g>
                    <path d="M-2.5583,18.7631 L-10.2343,18.7631 M0.0007,21.3221 L0.0007,28.9971 M-2.5583,0.0001 L-10.2343,0.0001 M0.0007,-2.5579 L0.0007,-10.2339 M21.3217,0.0001 L28.9967,0.0001 M18.7627,-2.5579 L18.7627,-10.2339 M21.3217,18.7631 L28.9967,18.7631 M18.7627,21.3221 L18.7627,28.9971" id="Stroke-38" stroke="#52564E" stroke-width="0.142" mask="url(#mask-8)"></path>
                </g>
            </g>
            <g id="Group-47" transform="translate(20.225000, 662.680197)">
                <path d="M9.3684,1.4654 C11.5534,1.4654 13.4034,2.2234 14.9194,3.7394 C16.4354,5.2454 17.1934,7.0914 17.1934,9.2764 C17.1934,11.4614 16.4494,13.2934 14.9614,14.7714 C13.3904,16.3154 11.5254,17.0874 9.3684,17.0874 C7.2574,17.0874 5.4254,16.3204 3.8724,14.7854 C2.3384,13.2514 1.5714,11.4154 1.5714,9.2764 C1.5714,7.1474 2.3384,5.3014 3.8724,3.7394 C5.3884,2.2234 7.2204,1.4654 9.3684,1.4654 L9.3684,1.4654 Z M9.3964,2.8744 C7.6204,2.8744 6.1184,3.5014 4.8914,4.7574 C3.6174,6.0494 2.9804,7.5564 2.9804,9.2764 C2.9804,11.0154 3.6124,12.5124 4.8774,13.7674 C6.1414,15.0324 7.6484,15.6644 9.3964,15.6644 C11.1354,15.6644 12.6504,15.0274 13.9434,13.7534 C15.1704,12.5634 15.7844,11.0714 15.7844,9.2764 C15.7844,7.4904 15.1614,5.9844 13.9154,4.7574 C12.6784,3.5014 11.1724,2.8744 9.3964,2.8744 L9.3964,2.8744 Z M12.5764,7.0444 C12.6974,7.0444 12.7994,7.0864 12.8834,7.1704 C12.9674,7.2534 13.0084,7.3564 13.0084,7.4774 L13.0084,13.2234 C13.0084,13.3444 12.9674,13.4464 12.8834,13.5304 C12.7994,13.6144 12.6974,13.6564 12.5764,13.6564 L8.3224,13.6564 C8.2014,13.6564 8.0994,13.6144 8.0154,13.5304 C7.9314,13.4464 7.8904,13.3444 7.8904,13.2234 L7.8904,11.5224 L6.1884,11.5224 C6.0674,11.5224 5.9654,11.4804 5.8814,11.3964 C5.7974,11.3124 5.7554,11.2104 5.7554,11.0894 L5.7554,5.3434 C5.7554,5.2314 5.7924,5.1364 5.8674,5.0574 C5.9414,4.9784 6.0344,4.9294 6.1464,4.9104 L6.1884,4.9104 L10.4424,4.9104 C10.5634,4.9104 10.6654,4.9524 10.7494,5.0364 C10.8334,5.1194 10.8744,5.2224 10.8744,5.3434 L10.8744,7.0444 L12.5764,7.0444 Z M6.6064,10.6714 L7.8904,10.6714 L7.8904,7.4774 C7.8904,7.3654 7.9274,7.2704 8.0014,7.1914 C8.0754,7.1124 8.1644,7.0634 8.2664,7.0444 L8.3224,7.0444 L10.0244,7.0444 L10.0244,5.7754 L6.6064,5.7754 L6.6064,10.6714 Z M8.7414,12.7914 L12.1584,12.7914 L12.1584,7.8954 L8.7414,7.8954 L8.7414,12.7914 Z" id="Fill-42" fill="#000000"></path>
                <g id="Group-46">
                    <mask id="mask-10" fill="white">
                        <use xlink:href="#path-9"></use>
                    </mask>
                    <g id="Clip-45"></g>
                    <path d="M-2.5588,18.7631 L-10.2348,18.7631 M0.0002,21.3221 L0.0002,28.9971 M-2.5588,0.0001 L-10.2348,0.0001 M0.0002,-2.5579 L0.0002,-10.2339 M21.3212,0.0001 L28.9962,0.0001 M18.7622,-2.5579 L18.7622,-10.2339 M21.3212,18.7631 L28.9962,18.7631 M18.7622,21.3221 L18.7622,28.9971" id="Stroke-44" stroke="#52564E" stroke-width="0.142" mask="url(#mask-10)"></path>
                </g>
            </g>
            <line x1="107.282" y1="665.084397" x2="107.282" y2="679.085397" id="Stroke-48" stroke="#1A1919" stroke-width="0.25"></line>
            <path d="M876.2203,0.547697495 C873.3723,-0.800302505 869.9743,0.425697495 868.6313,3.28469749 C868.5393,3.48469749 868.4553,3.73269749 868.3873,4.02269749 C868.3163,3.73269749 868.2343,3.48469749 868.1413,3.28469749 C866.7993,0.425697495 863.4013,-0.800302505 860.5503,0.547697495 C857.7023,1.89469749 856.4843,5.30369749 857.8273,8.16369749 C859.1673,11.0226975 868.3853,19.2196975 868.3853,19.2196975 C868.3853,19.2196975 868.3853,19.2096975 868.3873,19.1946975 C868.3893,19.2096975 868.3913,19.2196975 868.3913,19.2196975 C868.3913,19.2196975 877.6073,11.0226975 878.9493,8.16369749 C880.2913,5.30369749 879.0733,1.89469749 876.2203,0.547697495" id="Fill-49" fill="#1A1919"></path>
        </g>
    </g>
</svg>