<?xml version="1.0" standalone="no"?>
<!DOCTYPE svg PUBLIC "-//W3C//DTD SVG 20010904//EN"
 "http://www.w3.org/TR/2001/REC-SVG-20010904/DTD/svg10.dtd">
<svg version="1.0" xmlns="http://www.w3.org/2000/svg"
 width="700.000000pt" height="700.000000pt" viewBox="0 0 700.000000 700.000000"
 preserveAspectRatio="xMidYMid meet">
<metadata>
Created by potrace 1.14, written by Peter Selinger 2001-2017
</metadata>
<g transform="translate(0.000000,700.000000) scale(0.100000,-0.100000)"
fill="#000000" stroke="none">
<path d="M3235 6854 c-49 -6 -112 -15 -140 -19 -72 -10 -296 -68 -397 -103
-314 -109 -616 -279 -863 -487 -77 -65 -242 -234 -307 -314 -121 -151 -230
-335 -298 -506 -18 -44 -36 -89 -40 -100 -9 -21 -42 -130 -55 -180 -5 -16 -9
-32 -10 -35 -14 -49 -42 -205 -61 -335 -3 -22 -7 -146 -9 -275 -3 -213 6 -368
29 -497 3 -18 8 -48 12 -65 34 -205 124 -510 201 -688 44 -102 93 -188 132
-231 63 -71 158 -62 197 19 20 42 12 84 -27 140 -128 181 -273 675 -305 1032
-14 158 -7 532 11 600 2 8 6 32 9 53 13 81 18 112 22 118 2 3 6 21 9 40 18
105 99 331 163 454 302 584 973 1035 1697 1141 169 24 410 24 595 -1 21 -2 64
-10 177 -31 68 -13 278 -80 376 -120 274 -112 454 -230 658 -434 205 -204 369
-429 484 -665 94 -190 166 -413 190 -584 3 -19 7 -46 10 -60 19 -119 26 -378
13 -506 -15 -150 -19 -182 -28 -235 -6 -30 -12 -64 -14 -75 -17 -77 -40 -181
-71 -310 -48 -200 -50 -210 -35 -245 36 -87 172 -95 209 -13 12 27 41 144 96
388 37 168 40 183 50 255 3 25 8 52 10 60 11 42 20 205 20 370 0 200 -8 310
-30 420 -3 14 -8 39 -11 55 -4 26 -10 49 -28 125 -2 8 -10 35 -17 60 -7 25
-13 50 -15 55 -29 122 -189 460 -290 610 -67 101 -178 246 -243 320 -63 70
-244 249 -296 291 -256 208 -628 385 -965 459 -158 35 -175 38 -320 54 -105
12 -387 9 -495 -5z"/>
<path d="M3368 5965 c-2 -2 -29 -6 -61 -9 -396 -39 -768 -208 -1024 -463 -135
-134 -238 -283 -339 -488 -222 -455 -245 -911 -72 -1455 34 -106 53 -146 83
-172 49 -43 138 -26 173 32 22 35 19 99 -5 136 -15 23 -77 232 -88 294 -3 19
-10 53 -15 75 -31 140 -34 423 -6 575 23 126 86 313 148 432 141 275 314 468
538 600 79 47 237 118 262 118 8 0 18 4 24 9 16 16 241 65 349 77 241 26 517
-13 725 -104 207 -89 340 -174 476 -304 160 -153 261 -291 354 -482 130 -267
175 -518 148 -827 -7 -73 -52 -301 -64 -320 -12 -20 -5 -101 10 -124 41 -62
132 -68 183 -12 20 21 43 88 59 172 9 49 9 51 23 115 19 89 25 170 26 330 0
192 -13 297 -53 450 -82 309 -259 608 -498 842 -112 109 -155 143 -277 223
-186 120 -483 235 -675 261 -26 3 -66 9 -90 14 -40 7 -307 11 -314 5z"/>
<path d="M3379 5145 c-261 -44 -465 -149 -649 -334 -209 -210 -321 -482 -320
-776 0 -140 10 -211 47 -335 54 -183 151 -346 288 -484 85 -85 234 -194 298
-217 l34 -12 0 -154 c0 -84 -4 -152 -8 -151 -4 2 -55 48 -114 103 -180 168
-212 190 -315 226 -93 32 -239 32 -334 1 -215 -71 -361 -258 -372 -476 -7
-147 37 -256 158 -391 14 -16 36 -41 48 -55 12 -14 41 -47 64 -75 64 -75 305
-357 324 -380 10 -11 61 -71 114 -133 54 -62 100 -124 103 -137 3 -14 8 -37
11 -53 3 -15 8 -38 11 -52 8 -44 72 -228 100 -288 73 -156 209 -360 313 -470
22 -24 40 -51 41 -60 0 -9 1 -78 1 -152 0 -74 5 -146 10 -160 16 -42 58 -78
100 -85 21 -4 486 -7 1031 -7 1024 0 1026 0 1071 40 45 42 50 67 51 278 l0
200 51 70 c163 220 293 508 329 729 3 17 10 53 15 80 21 114 23 183 25 683 l1
523 -70 69 c-197 191 -449 347 -693 429 -89 30 -302 86 -372 97 -19 3 -44 9
-55 14 -12 4 -25 8 -31 8 -14 2 -119 16 -125 17 -3 1 -33 5 -67 10 l-62 7 53
77 c146 208 206 409 202 670 -3 120 -8 164 -29 247 -59 224 -159 401 -315 552
-167 162 -349 256 -597 307 -62 13 -291 13 -366 0z m386 -305 c144 -37 325
-144 410 -242 89 -102 154 -218 190 -343 22 -74 27 -112 28 -215 1 -145 -4
-189 -34 -285 -40 -132 -110 -244 -218 -350 -48 -46 -61 -55 -62 -40 0 11 0
182 -1 380 -1 386 -4 415 -54 522 -33 69 -132 172 -199 205 -130 65 -277 80
-401 40 -150 -47 -273 -174 -314 -322 -18 -65 -18 -58 -19 -483 l-1 -388 -46
33 c-172 123 -287 302 -336 522 -21 97 -25 187 -13 276 4 30 8 57 7 60 0 24
70 191 107 254 119 203 356 361 586 392 28 3 51 7 53 9 13 12 249 -7 317 -25z
m-97 -622 c25 -13 59 -40 76 -61 l30 -37 0 -855 0 -854 51 -11 c28 -6 65 -13
81 -16 16 -3 56 -11 89 -19 33 -7 62 -11 64 -9 3 2 6 152 7 332 1 180 2 330 3
333 0 3 11 10 24 16 24 11 79 9 212 -7 44 -6 85 -10 92 -10 10 0 13 -80 15
-372 l3 -371 25 -4 c14 -2 50 -8 80 -14 30 -6 71 -12 90 -13 l35 -1 -1 371 0
371 41 -9 c147 -32 345 -96 346 -111 1 -7 2 -169 3 -360 1 -298 3 -350 16
-357 13 -7 102 -24 187 -37 l32 -4 0 303 c0 167 0 315 0 331 l1 27 43 -21 c54
-28 165 -100 197 -129 14 -12 43 -37 64 -56 39 -34 40 -35 42 -111 10 -285 12
-907 3 -958 -15 -93 -16 -97 -28 -145 -41 -156 -90 -277 -164 -405 -40 -69
-127 -191 -164 -230 -52 -55 -53 -60 -53 -236 l0 -166 -840 0 -840 0 0 36 c-2
148 -8 208 -24 233 -10 15 -55 65 -100 110 -97 97 -155 177 -224 308 -45 84
-112 260 -126 330 -3 14 -10 52 -16 85 -7 33 -17 72 -24 87 -9 20 -347 432
-376 458 -3 3 -28 32 -55 65 -28 33 -52 62 -55 65 -3 3 -41 48 -85 100 -43 52
-102 123 -131 156 -57 68 -77 115 -77 183 0 47 28 117 62 158 33 40 112 73
177 74 108 3 133 -15 381 -264 l221 -222 -2 -203 c0 -112 1 -208 5 -213 5 -8
198 86 248 121 l25 17 0 1054 c1 976 3 1056 18 1084 34 58 83 100 128 107 51
9 124 -2 168 -24z"/>
</g>
</svg>
