<?xml version="1.0" encoding="UTF-8"?>
<svg width="1348px" height="304px" viewBox="0 0 1348 304" version="1.1" xmlns="http://www.w3.org/2000/svg" xmlns:xlink="http://www.w3.org/1999/xlink">
    <title>RTW overview w icons</title>
    <defs>
        <filter color-interpolation-filters="auto" id="filter-1">
            <feColorMatrix in="SourceGraphic" type="matrix" values="0 0 0 0 0.172549 0 0 0 0 0.509804 0 0 0 0 0.788235 0 0 0 1.000000 0"></feColorMatrix>
        </filter>
        <filter color-interpolation-filters="auto" id="filter-2">
            <feColorMatrix in="SourceGraphic" type="matrix" values="0 0 0 0 0.368627 0 0 0 0 0.654902 0 0 0 0 0.337255 0 0 0 1.000000 0"></feColorMatrix>
        </filter>
        <filter color-interpolation-filters="auto" id="filter-3">
            <feColorMatrix in="SourceGraphic" type="matrix" values="0 0 0 0 0.960784 0 0 0 0 0.835294 0 0 0 0 0.117647 0 0 0 1.000000 0"></feColorMatrix>
        </filter>
        <filter color-interpolation-filters="auto" id="filter-4">
            <feColorMatrix in="SourceGraphic" type="matrix" values="0 0 0 0 0.172549 0 0 0 0 0.509804 0 0 0 0 0.788235 0 0 0 1.000000 0"></feColorMatrix>
        </filter>
    </defs>
    <g id="RTW-overview-w-icons" stroke="none" stroke-width="1" fill="none" fill-rule="evenodd">
        <g id="RTW" transform="translate(1051.500000, -23.151861)">
            <g id="mark" transform="translate(29.628192, 0.000000)">
                <g id="ripples" stroke-linecap="round" stroke-width="12">
                    <path d="M127.182567,172.160018 C132.827201,169.702366 125.945842,172.953194 133.349137,169.294585 C151.735306,160.208388 163.435096,142.973461 165.264597,121.209372 C166.390483,107.815612 161.417807,92.9760925 154.246056,83.7966696 C147.074305,74.6172467 131.499214,60.4966159 109.417698,61.9213222 C87.3361828,63.3460285 73.2195094,73.7690292 63.1056071,87.7507048 C56.4994354,96.8832184 61.1676523,91.250875 59.0992376,93.9825663" id="Oval" stroke="#F5D51E" transform="translate(112.261469, 116.990672) rotate(-52.000000) translate(-112.261469, -116.990672) "></path>
                    <path d="M129.539154,190.955112 C130.968917,190.311909 135.183864,188.26031 142.183995,184.800318 C168.261354,171.910921 186.9236,149.724671 189.647421,114.146615 C191.027371,96.1219631 183.57394,76.4074454 173.348228,63.146092 C158.989272,44.5244838 133.543909,31.3313812 108.141503,31.3871412 C81.8329542,31.445251 58.0998709,48.5909737 43.754955,68.424493 C37.508439,77.0610299 33.8990166,83.6735805 32.9266879,88.2621448" id="Oval" stroke="#5EA756" transform="translate(111.369401, 111.171127) rotate(-51.000000) translate(-111.369401, -111.171127) "></path>
                </g>
                <g filter="url(#filter-1)" id="clarity:cursor-hand-click-line-copy">
                    <g transform="translate(43.871808, 86.151861)">
                        <rect id="ViewBox" x="0" y="0" width="176" height="176"></rect>
                        <path d="M148.559557,85.8314481 C139.742891,76.5553642 127.987336,70.20857 115.741967,67.7674953 C110.354004,66.3028505 104.966042,65.3264206 99.5780793,64.8382056 C113.292893,48.7271126 110.843819,24.3163656 94.6799315,10.6463473 C78.5160438,-3.02367105 54.025305,-0.582596351 40.3104912,15.5284967 C26.5956774,31.6395897 29.0447513,56.0503367 45.208639,69.720355 C48.1475276,72.1614297 51.0864163,74.1142895 54.025305,75.0907194 L54.025305,85.8314481 L46.1882685,78.508224 C39.3308616,71.6732148 28.0651218,71.6732148 20.7179001,78.508224 C13.8604932,85.3432331 13.3706784,96.0839618 20.2280853,102.918971 L42.7595651,129.282578 C43.7391946,136.117587 46.1882685,142.464381 49.616972,148.32296 C52.0660458,152.716895 55.4947493,157.110829 58.9234527,160.528334 L58.9234527,169.804418 C58.9234527,172.733707 60.8827118,174.686567 63.8216005,174.686567 L130.43641,174.686567 C132.885484,174.686567 135.334558,172.245492 135.334558,169.804418 L135.334558,157.110829 C144.641039,145.881886 149.539187,131.723652 149.539187,117.565419 L149.539187,89.2489526 C150.029001,87.2960929 149.539187,86.319663 148.559557,85.8314481 L148.559557,85.8314481 Z M40.800306,39.9392437 C40.800306,23.8281507 54.025305,11.1345622 70.1891926,11.6227772 C86.3530803,11.6227772 99.0882645,24.8045805 98.5984497,40.9156736 C98.5984497,49.7035425 94.6799315,57.5149815 87.8225246,62.8853459 L87.8225246,38.4745989 C87.3032304,29.6904434 79.9970355,22.8364845 71.1688222,22.8517208 C62.3521562,22.3635058 54.5151197,29.6867299 54.5151197,38.4745989 L54.5151197,63.8617757 C46.1882685,58.9796263 41.2901207,49.7035425 40.800306,39.9392437 Z M140.232706,117.077204 C140.722521,129.770793 136.314188,141.976166 127.987336,151.740465 C127.007707,152.716895 126.028077,153.693325 126.028077,155.15797 L126.028077,165.410483 L69.2095631,165.410483 L69.2095631,158.575474 C69.2095631,157.110829 68.2299335,155.646184 67.250304,154.669755 C63.8216005,151.740465 60.8827118,148.32296 58.433638,143.929026 C55.4947493,139.046877 53.5354902,133.188297 52.5558606,127.329718 C52.5558606,126.353288 52.0660458,125.376858 51.5762311,124.400428 L28.0651218,96.5721767 C26.5956774,95.1075319 25.6160479,93.1546722 25.6160479,90.7135975 C25.6160479,88.7607377 26.5956774,86.319663 28.0651218,84.8550182 C31.4938252,81.9257285 36.391973,81.9257285 39.8206764,84.8550182 L54.025305,99.0132514 L54.025305,113.6597 L63.3317857,108.77755 L63.3317857,38.4745989 C63.8216005,35.0570943 66.7604892,32.1278046 70.6790074,32.6160196 C74.1077108,32.6160196 77.5364143,35.0570943 77.5364143,38.4745989 L77.5364143,94.619317 L87.3327098,96.5721767 L87.3327098,74.1142895 C87.8225246,73.6260746 88.3123394,73.6260746 88.8021542,73.1378596 C92.2308576,73.1378596 95.659561,73.6260746 99.0882645,74.1142895 L99.0882645,99.0132514 L106.925301,100.477896 L106.925301,75.0907194 L112.803078,76.5553642 C115.252152,77.0435791 117.701226,78.020009 120.1503,78.9964389 L120.1503,103.407186 L127.987336,104.871831 L127.987336,82.4139435 C132.395669,84.3668032 136.314188,87.2960929 139.742891,90.7135975 L140.232706,117.077204 L140.232706,117.077204 Z" id="Shape" fill="#000000" fill-rule="nonzero"></path>
                    </g>
                </g>
            </g>
            <text id="ResponsibleTech.Work" font-family="Lato-Bold, Lato" font-size="30" font-weight="bold" letter-spacing="-0.52" fill="#2C82C9">
                <tspan x="0.2075" y="301.151861">ResponsibleTech.Work</tspan>
            </text>
        </g>
        <text id="=" font-family="Lato-Regular, Lato" font-size="90" font-weight="normal" fill="#242D3B">
            <tspan x="975" y="148">=</tspan>
        </text>
        <g id="planet" transform="translate(667.000000, -5.000000)">
            <g filter="url(#filter-2)" id="mdi:leaf">
                <g transform="translate(20.000474, 0.000000)">
                    <rect id="ViewBox" x="0" y="0" width="250" height="250"></rect>
                    <path d="M177.083333,83.3333333 C83.3333333,104.166667 61.4583333,168.4375 39.7916667,222.291667 L59.4791667,229.166667 L69.375,205.208333 C74.375,206.979167 79.5833333,208.333333 83.3333333,208.333333 C197.916667,208.333333 229.166667,31.25 229.166667,31.25 C218.75,52.0833333 145.833333,54.6875 93.75,65.1041667 C41.6666667,75.5208333 20.8333333,119.791667 20.8333333,140.625 C20.8333333,161.458333 39.0625,179.6875 39.0625,179.6875 C72.9166667,83.3333333 177.083333,83.3333333 177.083333,83.3333333 Z" id="Path" fill="#000000" fill-rule="nonzero"></path>
                </g>
            </g>
            <text id="Environmental-impact" font-family="Lato-Regular, Lato" font-size="30" font-weight="normal" fill="#242D3B">
                <tspan x="0.11" y="283">Environmental impact</tspan>
            </text>
        </g>
        <text id="+" font-family="Lato-Regular, Lato" font-size="90" font-weight="normal" fill="#242D3B">
            <tspan x="614" y="148">+</tspan>
        </text>
        <g id="people" transform="translate(345.000474, -5.000000)">
            <g filter="url(#filter-3)" id="mdi:account-group">
                <g>
                    <rect id="ViewBox" x="0" y="0" width="250" height="250"></rect>
                    <path d="M125,57.2916667 C145.135382,57.2916667 161.458333,73.6146185 161.458333,93.75 C161.458333,113.885382 145.135382,130.208333 125,130.208333 C104.864618,130.208333 88.5416667,113.885382 88.5416667,93.75 C88.5416667,73.6146185 104.864618,57.2916667 125,57.2916667 M52.0833333,83.3333333 C57.9166667,83.3333333 63.3333333,84.8958333 68.0208333,87.7083333 C66.4583333,102.604167 70.8333333,117.395833 79.7916667,128.958333 C74.5833333,138.958333 64.1666667,145.833333 52.0833333,145.833333 C34.8244349,145.833333 20.8333333,131.842232 20.8333333,114.583333 C20.8333333,97.3244349 34.8244349,83.3333333 52.0833333,83.3333333 M197.916667,83.3333333 C215.175565,83.3333333 229.166667,97.3244349 229.166667,114.583333 C229.166667,131.842232 215.175565,145.833333 197.916667,145.833333 C185.833333,145.833333 175.416667,138.958333 170.208333,128.958333 C179.290351,117.233531 183.50592,102.460386 181.979167,87.7083333 C186.666667,84.8958333 192.083333,83.3333333 197.916667,83.3333333 M57.2916667,190.104167 C57.2916667,168.541667 87.6041667,151.041667 125,151.041667 C162.395833,151.041667 192.708333,168.541667 192.708333,190.104167 L192.708333,208.333333 L57.2916667,208.333333 L57.2916667,190.104167 M0,208.333333 L0,192.708333 C0,178.229167 19.6875,166.041667 46.3541667,162.5 C40.2083333,169.583333 36.4583333,179.375 36.4583333,190.104167 L36.4583333,208.333333 L0,208.333333 M250,208.333333 L213.541667,208.333333 L213.541667,190.104167 C213.541667,179.375 209.791667,169.583333 203.645833,162.5 C230.3125,166.041667 250,178.229167 250,192.708333 L250,208.333333 Z" id="Shape" fill="#000000" fill-rule="nonzero"></path>
                </g>
            </g>
            <text id="Social-impact" font-family="Lato-Regular, Lato" font-size="30" font-weight="normal" fill="#242D3B">
                <tspan x="39.384526" y="283">Social impact</tspan>
            </text>
        </g>
        <text id="+" font-family="Lato-Regular, Lato" font-size="90" font-weight="normal" fill="#242D3B">
            <tspan x="273" y="148">+</tspan>
        </text>
        <g id="product" transform="translate(-12.000000, -5.000000)">
            <g filter="url(#filter-4)" id="mdi:code-tags">
                <g transform="translate(31.000000, 0.000000)">
                    <rect id="ViewBox" x="0" y="0" width="250" height="250"></rect>
                    <path d="M152.007042,175.352113 L199.788732,126.760563 L152.007042,78.1690141 L166.549296,63.3802817 L228.873239,126.760563 L166.549296,190.140845 L152.007042,175.352113 M97.9929577,175.352113 L50.2112676,126.760563 L97.9929577,78.1690141 L83.4507042,63.3802817 L21.1267606,126.760563 L83.4507042,190.140845 L97.9929577,175.352113 L97.9929577,175.352113 Z" id="Shape" fill="#000000" fill-rule="nonzero"></path>
                </g>
            </g>
            <text id="Ethical-product-desi" font-family="Lato-Regular, Lato" font-size="30" font-weight="normal" fill="#242D3B">
                <tspan x="56.675" y="264">Ethical product </tspan>
                <tspan x="11.21" y="302">design &amp; development</tspan>
            </text>
        </g>
    </g>
</svg>