<?xml version="1.0" encoding="UTF-8"?>
<svg width="800px" height="164px" viewBox="0 0 800 164" version="1.1" xmlns="http://www.w3.org/2000/svg" xmlns:xlink="http://www.w3.org/1999/xlink">
    <title>RTW logo outlines</title>
    <defs>
        <filter color-interpolation-filters="auto" id="filter-1">
            <feColorMatrix in="SourceGraphic" type="matrix" values="0 0 0 0 0.172549 0 0 0 0 0.509804 0 0 0 0 0.788235 0 0 0 1.000000 0"></feColorMatrix>
        </filter>
    </defs>
    <g id="RTW-logo-outlines" stroke="none" stroke-width="1" fill="none" fill-rule="evenodd">
        <path d="M133.898735,150.962109 L133.898735,132.345964 L137.703027,132.345964 C138.585182,132.345964 139.252311,132.466776 139.704416,132.708402 C140.15652,132.950027 140.57003,133.356398 140.944946,133.927512 L140.944946,133.927512 L151.001509,149.182867 C151.376425,149.753981 151.834043,150.1933 152.374362,150.500824 C152.914682,150.808347 153.570785,150.962109 154.34267,150.962109 L154.34267,150.962109 L162.348224,150.962109 L150.372974,133.367381 C149.556981,132.181219 148.586611,131.269632 147.461863,130.632619 C149.137957,130.105437 150.632107,129.402526 151.944312,128.523888 C153.256517,127.64525 154.35921,126.623833 155.252392,125.459638 C156.145573,124.295442 156.829243,122.999451 157.303402,121.571664 C157.77756,120.143877 158.014639,118.628226 158.014639,117.024712 C158.014639,115.003844 157.66729,113.153213 156.972594,111.472817 C156.277897,109.792422 155.18623,108.34816 153.697594,107.140033 C152.208958,105.931906 150.301299,104.992861 147.974616,104.3229 C145.647933,103.652938 142.852605,103.317957 139.588633,103.317957 L139.588633,103.317957 L125,103.317957 L125,150.962109 L133.898735,150.962109 Z M139.45631,125.98682 L133.898735,125.98682 L133.898735,110.171334 L139.588633,110.171334 C142.874659,110.171334 145.317125,110.81933 146.91603,112.115321 C148.514936,113.411312 149.314388,115.267435 149.314388,117.68369 C149.314388,118.891818 149.115903,120.001098 148.718934,121.011532 C148.321964,122.021966 147.720996,122.895113 146.91603,123.630972 C146.111064,124.366831 145.085559,124.943438 143.839516,125.360791 C142.593472,125.778144 141.132404,125.98682 139.45631,125.98682 L139.45631,125.98682 Z M181.840691,151.456343 C183.0316,151.456343 184.261103,151.368479 185.529201,151.192751 C186.797298,151.017024 188.043341,150.714992 189.267331,150.286656 C190.491321,149.85832 191.665689,149.287205 192.790436,148.573311 C193.915183,147.859418 194.929661,146.975288 195.83387,145.920923 L195.83387,145.920923 L193.452052,142.955519 C193.275621,142.713893 193.06611,142.527183 192.823517,142.395387 C192.580924,142.263591 192.294224,142.197694 191.963416,142.197694 C191.456177,142.197694 190.932398,142.351455 190.392078,142.658979 C189.851758,142.966502 189.223223,143.306974 188.506473,143.680395 C187.789722,144.053817 186.951675,144.394289 185.992332,144.701812 C185.032989,145.009336 183.891701,145.163097 182.568469,145.163097 C179.877897,145.163097 177.716618,144.350357 176.084632,142.724876 C174.452646,141.099396 173.515357,138.551345 173.272764,135.080725 L173.272764,135.080725 L194.245991,135.080725 C194.620907,135.080725 194.929661,135.031301 195.172254,134.932455 C195.414846,134.833608 195.607818,134.668863 195.751168,134.438221 C195.894518,134.207578 195.99376,133.889072 196.048895,133.482702 C196.10403,133.076332 196.131597,132.565623 196.131597,131.950577 C196.131597,129.512356 195.767708,127.343218 195.039931,125.443163 C194.312153,123.543108 193.297675,121.939594 191.996497,120.632619 C190.695319,119.325645 189.146035,118.331686 187.348645,117.650741 C185.551254,116.969797 183.582947,116.629325 181.443722,116.629325 C178.907527,116.629325 176.630465,117.068644 174.612536,117.947282 C172.594608,118.82592 170.885433,120.017573 169.485012,121.522241 C168.084592,123.026908 167.009466,124.795167 166.259634,126.827018 C165.509803,128.858869 165.134887,131.028007 165.134887,133.334432 C165.134887,136.299835 165.564938,138.908292 166.425038,141.159802 C167.285139,143.411312 168.465021,145.300384 169.964684,146.827018 C171.464347,148.353652 173.228656,149.506864 175.257612,150.286656 C177.286568,151.066447 179.480928,151.456343 181.840691,151.456343 Z M188.787659,130.171334 L173.438168,130.171334 C173.813084,127.711148 174.673185,125.811093 176.01847,124.47117 C177.363756,123.131247 179.227308,122.461285 181.609126,122.461285 C182.822088,122.461285 183.880674,122.66447 184.784883,123.07084 C185.689091,123.47721 186.438923,124.031851 187.034377,124.734761 C187.629831,125.437672 188.070909,126.255903 188.357609,127.189456 C188.644309,128.123009 188.787659,129.116969 188.787659,130.171334 L188.787659,130.171334 Z M211.422803,151.489292 C213.606136,151.489292 215.541363,151.209226 217.228484,150.649094 C218.915604,150.088962 220.332565,149.309171 221.479366,148.30972 C222.626168,147.310269 223.497295,146.124108 224.09275,144.751236 C224.688204,143.378364 224.985931,141.879187 224.985931,140.253707 C224.985931,138.891818 224.748852,137.727622 224.274694,136.76112 C223.800536,135.794618 223.172001,134.965404 222.389088,134.273476 C221.606176,133.581549 220.718508,133.010434 219.726084,132.560132 C218.73366,132.10983 217.719182,131.708951 216.68265,131.357496 C215.646119,131.006041 214.631641,130.682043 213.639217,130.385502 C212.646793,130.088962 211.759125,129.753981 210.976212,129.38056 C210.1933,129.007139 209.564765,128.573311 209.090607,128.079077 C208.616449,127.584843 208.37937,126.975288 208.37937,126.250412 C208.37937,125.152114 208.842501,124.262493 209.768763,123.581549 C210.695026,122.900604 211.963123,122.560132 213.573055,122.560132 C214.609587,122.560132 215.508282,122.669962 216.26914,122.889621 C217.029999,123.109281 217.708155,123.356398 218.30361,123.630972 C218.899064,123.905546 219.422843,124.152663 219.874948,124.372323 C220.327052,124.591982 220.751589,124.701812 221.148558,124.701812 C221.523474,124.701812 221.832228,124.630423 222.074821,124.487644 C222.317413,124.344865 222.548979,124.097748 222.769518,123.746293 L222.769518,123.746293 L224.622043,120.813839 C223.342918,119.561779 221.744013,118.551345 219.825326,117.782537 C217.90664,117.013729 215.778442,116.629325 213.440732,116.629325 C211.345615,116.629325 209.498603,116.90939 207.899698,117.469522 C206.300793,118.029654 204.966534,118.776496 203.896921,119.710049 C202.827309,120.643602 202.016829,121.736409 201.465482,122.988468 C200.914136,124.240527 200.638462,125.558484 200.638462,126.942339 C200.638462,128.436024 200.875541,129.710049 201.349699,130.764415 C201.823858,131.818781 202.452393,132.708402 203.235305,133.433278 C204.018217,134.158155 204.911399,134.756727 205.91485,135.228995 C206.918301,135.701263 207.943806,136.113125 208.991364,136.46458 C210.038923,136.816035 211.064428,137.140033 212.067879,137.436573 C213.07133,137.733114 213.964511,138.068094 214.747424,138.441516 C215.530336,138.814937 216.158871,139.254256 216.633029,139.759473 C217.107187,140.26469 217.344266,140.912685 217.344266,141.70346 C217.344266,142.230643 217.239511,142.741351 217.029999,143.235585 C216.820487,143.729819 216.489679,144.163646 216.037575,144.537068 C215.585471,144.910489 215.01207,145.212521 214.317373,145.443163 C213.622676,145.673806 212.790143,145.789127 211.819773,145.789127 C210.584756,145.789127 209.564765,145.646348 208.759799,145.360791 C207.954833,145.075233 207.254622,144.76771 206.659168,144.438221 C206.063714,144.108731 205.539934,143.801208 205.08783,143.515651 C204.635726,143.230093 204.156054,143.087315 203.648815,143.087315 C203.141576,143.087315 202.722553,143.186161 202.391745,143.383855 C202.060937,143.581549 201.774236,143.867106 201.531644,144.240527 L201.531644,144.240527 L199.646038,147.337727 C200.307654,147.930807 201.074026,148.479956 201.945154,148.985173 C202.816282,149.49039 203.764598,149.929709 204.790103,150.30313 C205.815608,150.676551 206.88522,150.9676 207.99894,151.176277 C209.112661,151.384953 210.253948,151.489292 211.422803,151.489292 Z M239.54936,162 L239.54936,148.16145 C240.607945,149.19385 241.804368,150.001098 243.138627,150.583196 C244.472886,151.165294 246.099358,151.456343 248.018045,151.456343 C250.245485,151.456343 252.257901,151.011532 254.055291,150.121911 C255.852681,149.23229 257.385425,147.996705 258.653522,146.415157 C259.921619,144.833608 260.897503,142.966502 261.581173,140.813839 C262.264843,138.661175 262.606678,136.321801 262.606678,133.795717 C262.606678,131.028007 262.303437,128.573311 261.696956,126.431631 C261.090474,124.289951 260.230374,122.488742 259.116653,121.028007 C258.002933,119.567271 256.679701,118.452499 255.146957,117.68369 C253.614213,116.914882 251.921579,116.530478 250.069054,116.530478 C247.687237,116.530478 245.60866,117.013729 243.833323,117.980231 C242.057987,118.946733 240.486649,120.209775 239.119309,121.769357 L239.119309,121.769357 L238.457693,118.639209 C238.347424,118.133992 238.104832,117.760571 237.729916,117.518946 C237.355,117.27732 236.902896,117.156507 236.373603,117.156507 L236.373603,117.156507 L231.378402,117.156507 L231.378402,162 L239.54936,162 Z M246.099358,145.261944 C244.842288,145.261944 243.667919,145.036793 242.576253,144.586491 C241.484587,144.136189 240.475622,143.339923 239.54936,142.197694 L239.54936,142.197694 L239.54936,127.041186 C240.585892,125.745195 241.705125,124.740253 242.907061,124.026359 C244.108997,123.312466 245.559039,122.955519 247.257186,122.955519 C248.337826,122.955519 249.302682,123.153213 250.151756,123.5486 C251.00083,123.943987 251.723094,124.570016 252.318549,125.426689 C252.914003,126.283361 253.371621,127.398133 253.691402,128.771005 C254.011183,130.143877 254.171074,131.818781 254.171074,133.795717 C254.171074,135.750686 253.983616,137.447556 253.6087,138.886326 C253.233784,140.325096 252.698978,141.516749 252.004281,142.461285 C251.309584,143.405821 250.46051,144.108731 249.45706,144.570016 C248.453609,145.031301 247.334375,145.261944 246.099358,145.261944 Z M283.12465,151.456343 C285.660845,151.456343 287.959961,151.049973 290.021997,150.237232 C292.084034,149.424492 293.84283,148.260297 295.298385,146.744646 C296.75394,145.228995 297.878687,143.394838 298.672626,141.242175 C299.466566,139.089511 299.863535,136.673256 299.863535,133.99341 C299.863535,131.33553 299.466566,128.930258 298.672626,126.777595 C297.878687,124.624931 296.75394,122.801757 295.298385,121.308072 C293.84283,119.814388 292.084034,118.661175 290.021997,117.848435 C287.959961,117.035695 285.660845,116.629325 283.12465,116.629325 C280.588456,116.629325 278.283826,117.035695 276.210763,117.848435 C274.137699,118.661175 272.367877,119.814388 270.901295,121.308072 C269.434712,122.801757 268.298938,124.624931 267.493972,126.777595 C266.689006,128.930258 266.286523,131.33553 266.286523,133.99341 C266.286523,136.673256 266.689006,139.089511 267.493972,141.242175 C268.298938,143.394838 269.434712,145.228995 270.901295,146.744646 C272.367877,148.260297 274.137699,149.424492 276.210763,150.237232 C278.283826,151.049973 280.588456,151.456343 283.12465,151.456343 Z M283.12465,145.196046 C280.257648,145.196046 278.140476,144.246019 276.773137,142.345964 C275.405797,140.445909 274.722127,137.68369 274.722127,134.059308 C274.722127,130.434926 275.405797,127.661724 276.773137,125.739703 C278.140476,123.817683 280.257648,122.856672 283.12465,122.856672 C285.947545,122.856672 288.037149,123.812191 289.393462,125.723229 C290.749775,127.634267 291.427931,130.41296 291.427931,134.059308 C291.427931,137.705656 290.749775,140.473366 289.393462,142.362438 C288.037149,144.25151 285.947545,145.196046 283.12465,145.196046 Z M314.26156,150.962109 L314.26156,126.514003 C315.364253,125.415706 316.533108,124.548051 317.768125,123.911038 C319.003141,123.274025 320.326373,122.955519 321.737821,122.955519 C323.656507,122.955519 325.095522,123.521142 326.054865,124.652389 C327.014208,125.783635 327.49388,127.381658 327.49388,129.446458 L327.49388,129.446458 L327.49388,150.962109 L335.664838,150.962109 L335.664838,129.446458 C335.664838,127.557386 335.416732,125.827567 334.92052,124.257002 C334.424308,122.686436 333.69653,121.33553 332.737187,120.204283 C331.777843,119.073037 330.581421,118.194399 329.14792,117.568369 C327.714419,116.942339 326.071405,116.629325 324.218881,116.629325 C323.07208,116.629325 322.013494,116.739154 321.043124,116.958814 C320.072754,117.178473 319.163032,117.49698 318.313958,117.914333 C317.464884,118.331686 316.659918,118.82592 315.899059,119.397035 C315.138201,119.968149 314.415937,120.605162 313.732267,121.308072 L313.732267,121.308072 L313.169893,118.639209 C312.839085,117.650741 312.144388,117.156507 311.085803,117.156507 L311.085803,117.156507 L306.090602,117.156507 L306.090602,150.962109 L314.26156,150.962109 Z M352.345437,151.489292 C354.52877,151.489292 356.463997,151.209226 358.151118,150.649094 C359.838239,150.088962 361.255199,149.309171 362.402001,148.30972 C363.548802,147.310269 364.419929,146.124108 365.015384,144.751236 C365.610838,143.378364 365.908565,141.879187 365.908565,140.253707 C365.908565,138.891818 365.671486,137.727622 365.197328,136.76112 C364.72317,135.794618 364.094635,134.965404 363.311723,134.273476 C362.52881,133.581549 361.641142,133.010434 360.648718,132.560132 C359.656294,132.10983 358.641816,131.708951 357.605285,131.357496 C356.568753,131.006041 355.554275,130.682043 354.561851,130.385502 C353.569427,130.088962 352.681759,129.753981 351.898846,129.38056 C351.115934,129.007139 350.487399,128.573311 350.013241,128.079077 C349.539083,127.584843 349.302004,126.975288 349.302004,126.250412 C349.302004,125.152114 349.765135,124.262493 350.691397,123.581549 C351.61766,122.900604 352.885757,122.560132 354.495689,122.560132 C355.532221,122.560132 356.430916,122.669962 357.191775,122.889621 C357.952633,123.109281 358.630789,123.356398 359.226244,123.630972 C359.821698,123.905546 360.345477,124.152663 360.797582,124.372323 C361.249686,124.591982 361.674223,124.701812 362.071193,124.701812 C362.446108,124.701812 362.754862,124.630423 362.997455,124.487644 C363.240047,124.344865 363.471613,124.097748 363.692152,123.746293 L363.692152,123.746293 L365.544677,120.813839 C364.265552,119.561779 362.666647,118.551345 360.747961,117.782537 C358.829274,117.013729 356.701076,116.629325 354.363366,116.629325 C352.268249,116.629325 350.421237,116.90939 348.822332,117.469522 C347.223427,118.029654 345.889168,118.776496 344.819555,119.710049 C343.749943,120.643602 342.939463,121.736409 342.388116,122.988468 C341.83677,124.240527 341.561096,125.558484 341.561096,126.942339 C341.561096,128.436024 341.798175,129.710049 342.272334,130.764415 C342.746492,131.818781 343.375027,132.708402 344.157939,133.433278 C344.940851,134.158155 345.834033,134.756727 346.837484,135.228995 C347.840935,135.701263 348.86644,136.113125 349.913998,136.46458 C350.961557,136.816035 351.987062,137.140033 352.990513,137.436573 C353.993964,137.733114 354.887145,138.068094 355.670058,138.441516 C356.45297,138.814937 357.081505,139.254256 357.555663,139.759473 C358.029821,140.26469 358.266901,140.912685 358.266901,141.70346 C358.266901,142.230643 358.162145,142.741351 357.952633,143.235585 C357.743121,143.729819 357.412313,144.163646 356.960209,144.537068 C356.508105,144.910489 355.934704,145.212521 355.240007,145.443163 C354.54531,145.673806 353.712777,145.789127 352.742407,145.789127 C351.50739,145.789127 350.487399,145.646348 349.682433,145.360791 C348.877467,145.075233 348.177256,144.76771 347.581802,144.438221 C346.986348,144.108731 346.462568,143.801208 346.010464,143.515651 C345.55836,143.230093 345.078688,143.087315 344.571449,143.087315 C344.06421,143.087315 343.645187,143.186161 343.314379,143.383855 C342.983571,143.581549 342.69687,143.867106 342.454278,144.240527 L342.454278,144.240527 L340.568672,147.337727 C341.230288,147.930807 341.99666,148.479956 342.867788,148.985173 C343.738916,149.49039 344.687232,149.929709 345.712737,150.30313 C346.738242,150.676551 347.807854,150.9676 348.921574,151.176277 C350.035295,151.384953 351.176582,151.489292 352.345437,151.489292 Z M376.932348,112.411862 C377.660126,112.411862 378.343796,112.274574 378.983358,112 C379.62292,111.725426 380.17978,111.357496 380.653938,110.896211 C381.128096,110.434926 381.508526,109.89676 381.795226,109.281713 C382.081926,108.666667 382.225276,108.007688 382.225276,107.304778 C382.225276,106.579901 382.081926,105.898957 381.795226,105.261944 C381.508526,104.624931 381.128096,104.075783 380.653938,103.614498 C380.17978,103.153213 379.62292,102.785283 378.983358,102.510708 C378.343796,102.236134 377.660126,102.098847 376.932348,102.098847 C376.226625,102.098847 375.559495,102.236134 374.93096,102.510708 C374.302425,102.785283 373.756591,103.153213 373.29346,103.614498 C372.830329,104.075783 372.460927,104.624931 372.185253,105.261944 C371.90958,105.898957 371.771743,106.579901 371.771743,107.304778 C371.771743,108.007688 371.90958,108.666667 372.185253,109.281713 C372.460927,109.89676 372.830329,110.434926 373.29346,110.896211 C373.756591,111.357496 374.302425,111.725426 374.93096,112 C375.559495,112.274574 376.226625,112.411862 376.932348,112.411862 Z M381.001287,150.962109 L381.001287,117.156507 L372.830329,117.156507 L372.830329,150.962109 L381.001287,150.962109 Z M406.812187,151.456343 C409.039628,151.456343 411.052043,151.011532 412.849433,150.121911 C414.646824,149.23229 416.179567,147.996705 417.447665,146.415157 C418.715762,144.833608 419.691646,142.966502 420.375315,140.813839 C421.058985,138.661175 421.40082,136.321801 421.40082,133.795717 C421.40082,131.028007 421.09758,128.578803 420.491098,126.448105 C419.884617,124.317408 419.024516,122.527183 417.910796,121.07743 C416.797076,119.627677 415.473844,118.523888 413.9411,117.766063 C412.408356,117.008237 410.715722,116.629325 408.863197,116.629325 C406.591649,116.629325 404.606801,117.052169 402.908653,117.897858 C401.210505,118.743548 399.688788,119.880286 398.343502,121.308072 L398.343502,121.308072 L398.343502,102 L390.172545,102 L390.172545,150.962109 L395.564715,150.962109 C396.116062,150.962109 396.551626,150.841296 396.871407,150.599671 C397.191188,150.358045 397.41724,149.951675 397.549563,149.38056 L397.549563,149.38056 L397.913452,147.107084 C398.464799,147.766063 399.043713,148.364635 399.650194,148.902801 C400.256675,149.440967 400.912778,149.89676 401.618502,150.270181 C402.324225,150.643602 403.107138,150.934651 403.967239,151.143328 C404.827339,151.352004 405.775656,151.456343 406.812187,151.456343 Z M404.926582,145.261944 C403.647457,145.261944 402.462062,145.036793 401.370396,144.586491 C400.278729,144.136189 399.269765,143.339923 398.343502,142.197694 L398.343502,142.197694 L398.343502,127.041186 C399.380034,125.745195 400.499268,124.740253 401.701204,124.026359 C402.903139,123.312466 404.353181,122.955519 406.051329,122.955519 C407.131968,122.955519 408.096825,123.153213 408.945899,123.5486 C409.794973,123.943987 410.517237,124.570016 411.112691,125.426689 C411.708146,126.283361 412.165764,127.398133 412.485545,128.771005 C412.805326,130.143877 412.965216,131.818781 412.965216,133.795717 C412.965216,135.750686 412.777758,137.447556 412.402843,138.886326 C412.027927,140.325096 411.493121,141.516749 410.798424,142.461285 C410.103727,143.405821 409.260167,144.108731 408.267743,144.570016 C407.275319,145.031301 406.161598,145.261944 404.926582,145.261944 Z M436.328138,150.962109 L436.328138,102 L428.15718,102 L428.15718,150.962109 L436.328138,150.962109 Z M459.823382,151.456343 C461.014291,151.456343 462.243794,151.368479 463.511891,151.192751 C464.779989,151.017024 466.026032,150.714992 467.250022,150.286656 C468.474011,149.85832 469.64838,149.287205 470.773127,148.573311 C471.897874,147.859418 472.912352,146.975288 473.816561,145.920923 L473.816561,145.920923 L471.434743,142.955519 C471.258312,142.713893 471.0488,142.527183 470.806208,142.395387 C470.563615,142.263591 470.276915,142.197694 469.946107,142.197694 C469.438868,142.197694 468.915089,142.351455 468.374769,142.658979 C467.834449,142.966502 467.205914,143.306974 466.489163,143.680395 C465.772413,144.053817 464.934366,144.394289 463.975023,144.701812 C463.015679,145.009336 461.874392,145.163097 460.55116,145.163097 C457.860588,145.163097 455.699309,144.350357 454.067323,142.724876 C452.435337,141.099396 451.498047,138.551345 451.255455,135.080725 L451.255455,135.080725 L472.228682,135.080725 C472.603598,135.080725 472.912352,135.031301 473.154945,134.932455 C473.397537,134.833608 473.590509,134.668863 473.733859,134.438221 C473.877209,134.207578 473.976451,133.889072 474.031586,133.482702 C474.086721,133.076332 474.114288,132.565623 474.114288,131.950577 C474.114288,129.512356 473.750399,127.343218 473.022622,125.443163 C472.294844,123.543108 471.280366,121.939594 469.979188,120.632619 C468.67801,119.325645 467.128726,118.331686 465.331335,117.650741 C463.533945,116.969797 461.565638,116.629325 459.426413,116.629325 C456.890218,116.629325 454.613156,117.068644 452.595227,117.947282 C450.577299,118.82592 448.868124,120.017573 447.467703,121.522241 C446.067283,123.026908 444.992157,124.795167 444.242325,126.827018 C443.492494,128.858869 443.117578,131.028007 443.117578,133.334432 C443.117578,136.299835 443.547628,138.908292 444.407729,141.159802 C445.26783,143.411312 446.447712,145.300384 447.947375,146.827018 C449.447038,148.353652 451.211347,149.506864 453.240303,150.286656 C455.269259,151.066447 457.463618,151.456343 459.823382,151.456343 Z M466.77035,130.171334 L451.420859,130.171334 C451.795775,127.711148 452.655875,125.811093 454.001161,124.47117 C455.346447,123.131247 457.209999,122.461285 459.591817,122.461285 C460.804779,122.461285 461.863365,122.66447 462.767573,123.07084 C463.671782,123.47721 464.421613,124.031851 465.017068,124.734761 C465.612522,125.437672 466.0536,126.255903 466.3403,127.189456 C466.627,128.123009 466.77035,129.116969 466.77035,130.171334 L466.77035,130.171334 Z M500.38832,150.962109 L500.38832,110.599671 L514.778468,110.599671 L514.778468,103.317957 L477.033275,103.317957 L477.033275,110.599671 L491.489584,110.599671 L491.489584,150.962109 L500.38832,150.962109 Z M527.489372,151.456343 C528.68028,151.456343 529.909784,151.368479 531.177881,151.192751 C532.445978,151.017024 533.692022,150.714992 534.916011,150.286656 C536.140001,149.85832 537.314369,149.287205 538.439117,148.573311 C539.563864,147.859418 540.578342,146.975288 541.48255,145.920923 L541.48255,145.920923 L539.100733,142.955519 C538.924302,142.713893 538.71479,142.527183 538.472197,142.395387 C538.229605,142.263591 537.942905,142.197694 537.612097,142.197694 C537.104858,142.197694 536.581078,142.351455 536.040758,142.658979 C535.500439,142.966502 534.871904,143.306974 534.155153,143.680395 C533.438402,144.053817 532.600355,144.394289 531.641012,144.701812 C530.681669,145.009336 529.540381,145.163097 528.217149,145.163097 C525.526577,145.163097 523.365299,144.350357 521.733312,142.724876 C520.101326,141.099396 519.164037,138.551345 518.921444,135.080725 L518.921444,135.080725 L539.894672,135.080725 C540.269587,135.080725 540.578342,135.031301 540.820934,134.932455 C541.063527,134.833608 541.256498,134.668863 541.399848,134.438221 C541.543198,134.207578 541.642441,133.889072 541.697575,133.482702 C541.75271,133.076332 541.780277,132.565623 541.780277,131.950577 C541.780277,129.512356 541.416389,127.343218 540.688611,125.443163 C539.960833,123.543108 538.946355,121.939594 537.645177,120.632619 C536.343999,119.325645 534.794715,118.331686 532.997325,117.650741 C531.199935,116.969797 529.231627,116.629325 527.092402,116.629325 C524.556207,116.629325 522.279146,117.068644 520.261217,117.947282 C518.243288,118.82592 516.534113,120.017573 515.133693,121.522241 C513.733272,123.026908 512.658146,124.795167 511.908315,126.827018 C511.158483,128.858869 510.783567,131.028007 510.783567,133.334432 C510.783567,136.299835 511.213618,138.908292 512.073719,141.159802 C512.933819,143.411312 514.113701,145.300384 515.613364,146.827018 C517.113027,148.353652 518.877337,149.506864 520.906292,150.286656 C522.935248,151.066447 525.129608,151.456343 527.489372,151.456343 Z M534.43634,130.171334 L519.086848,130.171334 C519.461764,127.711148 520.321865,125.811093 521.667151,124.47117 C523.012437,123.131247 524.875988,122.461285 527.257806,122.461285 C528.470769,122.461285 529.529354,122.66447 530.433563,123.07084 C531.337771,123.47721 532.087603,124.031851 532.683057,124.734761 C533.278512,125.437672 533.719589,126.255903 534.006289,127.189456 C534.29299,128.123009 534.43634,129.116969 534.43634,130.171334 L534.43634,130.171334 Z M561.239664,151.456343 C562.430573,151.456343 563.632509,151.368479 564.845472,151.192751 C566.058434,151.017024 567.232803,150.714992 568.368577,150.286656 C569.504351,149.85832 570.601531,149.287205 571.660116,148.573311 C572.718702,147.859418 573.700099,146.975288 574.604308,145.920923 L574.604308,145.920923 L572.255571,142.955519 C571.924763,142.450302 571.428551,142.197694 570.766935,142.197694 C570.259696,142.197694 569.802078,142.356947 569.394082,142.675453 C568.986085,142.993959 568.506413,143.345415 567.955067,143.729819 C567.40372,144.114223 566.725564,144.465678 565.920598,144.784185 C565.115631,145.102691 564.062559,145.261944 562.761381,145.261944 C561.460203,145.261944 560.291348,145.014827 559.254816,144.520593 C558.218285,144.026359 557.33613,143.301483 556.608352,142.345964 C555.880575,141.390445 555.323715,140.209775 554.937772,138.803954 C554.551829,137.398133 554.358858,135.794618 554.358858,133.99341 C554.358858,132.2581 554.535289,130.704009 554.888151,129.331137 C555.241013,127.958265 555.775819,126.788578 556.492569,125.822076 C557.20932,124.855574 558.108015,124.114223 559.188655,123.598023 C560.269294,123.081823 561.526365,122.823723 562.959866,122.823723 C564.084613,122.823723 565.027416,122.950027 565.788274,123.202636 C566.549133,123.455244 567.205235,123.740802 567.756582,124.059308 C568.307929,124.377814 568.782087,124.663372 569.179056,124.91598 C569.576026,125.168589 569.984023,125.294893 570.403046,125.294893 C570.844123,125.294893 571.180445,125.207029 571.41201,125.031301 C571.643576,124.855574 571.880655,124.613948 572.123248,124.306425 L572.123248,124.306425 L574.2735,121.341021 C572.751783,119.825371 571.037095,118.661175 569.129435,117.848435 C567.221776,117.035695 564.999849,116.629325 562.463654,116.629325 C559.795136,116.629325 557.435372,117.068644 555.384363,117.947282 C553.333353,118.82592 551.613151,120.039539 550.223758,121.588138 C548.834364,123.136738 547.781292,124.970895 547.064541,127.09061 C546.347791,129.210324 545.989415,131.511258 545.989415,133.99341 C545.989415,136.76112 546.391898,139.226798 547.196865,141.390445 C548.001831,143.554091 549.093497,145.382757 550.471864,146.876442 C551.85023,148.370126 553.465676,149.506864 555.318201,150.286656 C557.170726,151.066447 559.144547,151.456343 561.239664,151.456343 Z M587.844504,150.962109 L587.844504,126.514003 C588.947197,125.415706 590.116052,124.548051 591.351069,123.911038 C592.586086,123.274025 593.909318,122.955519 595.320765,122.955519 C597.239451,122.955519 598.678466,123.521142 599.637809,124.652389 C600.597153,125.783635 601.076824,127.381658 601.076824,129.446458 L601.076824,129.446458 L601.076824,150.962109 L609.247782,150.962109 L609.247782,129.446458 C609.247782,127.557386 608.999676,125.827567 608.503464,124.257002 C608.007252,122.686436 607.279474,121.33553 606.320131,120.204283 C605.360788,119.073037 604.164366,118.194399 602.730864,117.568369 C601.297363,116.942339 599.65435,116.629325 597.801825,116.629325 C595.6626,116.629325 593.799048,117.013729 592.21117,117.782537 C590.623291,118.551345 589.167736,119.561779 587.844504,120.813839 L587.844504,120.813839 L587.844504,102 L579.673546,102 L579.673546,150.962109 L587.844504,150.962109 Z M620.205403,151.423394 C620.889073,151.423394 621.539662,151.29709 622.15717,151.044481 C622.774679,150.791873 623.303972,150.445909 623.745049,150.00659 C624.186126,149.567271 624.538988,149.045579 624.803634,148.441516 C625.068281,147.837452 625.200604,147.183965 625.200604,146.481054 C625.200604,145.80011 625.068281,145.152114 624.803634,144.537068 C624.538988,143.922021 624.186126,143.394838 623.745049,142.955519 C623.303972,142.5162 622.774679,142.164745 622.15717,141.901153 C621.539662,141.637562 620.889073,141.505766 620.205403,141.505766 C619.49968,141.505766 618.838063,141.637562 618.220555,141.901153 C617.603047,142.164745 617.068241,142.5162 616.616136,142.955519 C616.164032,143.394838 615.81117,143.922021 615.557551,144.537068 C615.303931,145.152114 615.177122,145.80011 615.177122,146.481054 C615.177122,147.183965 615.303931,147.837452 615.557551,148.441516 C615.81117,149.045579 616.164032,149.567271 616.616136,150.00659 C617.068241,150.445909 617.603047,150.791873 618.220555,151.044481 C618.838063,151.29709 619.49968,151.423394 620.205403,151.423394 Z M646.446354,150.962109 L656.99913,118.408567 C657.131453,117.991214 657.269289,117.540912 657.41264,117.057661 C657.55599,116.57441 657.693826,116.05821 657.82615,115.509061 C657.958473,116.05821 658.096309,116.57441 658.23966,117.057661 C658.38301,117.540912 658.520846,117.991214 658.65317,118.408567 L658.65317,118.408567 L669.106702,150.962109 L677.145337,150.962109 L691.998616,103.317957 L685.018567,103.317957 C684.268736,103.317957 683.629174,103.515651 683.099881,103.911038 C682.570588,104.306425 682.228753,104.778693 682.074376,105.327842 L682.074376,105.327842 L673.936499,133.828666 C673.760068,134.50961 673.589151,135.24547 673.423747,136.036244 C673.258343,136.827018 673.098452,137.650741 672.944075,138.507414 C672.591213,136.794069 672.17219,135.234487 671.687005,133.828666 L671.687005,133.828666 L662.358219,105.327842 C662.159734,104.712795 661.806873,104.224053 661.299634,103.861614 C660.792395,103.499176 660.152833,103.317957 659.380947,103.317957 L659.380947,103.317957 L656.767564,103.317957 C656.017733,103.317957 655.383684,103.526634 654.865418,103.943987 C654.347152,104.36134 653.999804,104.822625 653.823373,105.327842 L653.823373,105.327842 L644.428425,133.828666 C644.185833,134.531576 643.959781,135.294893 643.750269,136.118616 C643.540757,136.942339 643.347786,137.815486 643.171355,138.738056 C643.016978,137.815486 642.857087,136.942339 642.691683,136.118616 C642.526279,135.294893 642.344335,134.531576 642.14585,133.828666 L642.14585,133.828666 L634.007973,105.327842 C633.831542,104.712795 633.484194,104.224053 632.965928,103.861614 C632.447662,103.499176 631.802587,103.317957 631.030701,103.317957 L631.030701,103.317957 L623.55444,103.317957 L638.40772,150.962109 L646.446354,150.962109 Z M709.737802,151.456343 C712.273996,151.456343 714.573112,151.049973 716.635149,150.237232 C718.697185,149.424492 720.455981,148.260297 721.911536,146.744646 C723.367091,145.228995 724.491839,143.394838 725.285778,141.242175 C726.079717,139.089511 726.476687,136.673256 726.476687,133.99341 C726.476687,131.33553 726.079717,128.930258 725.285778,126.777595 C724.491839,124.624931 723.367091,122.801757 721.911536,121.308072 C720.455981,119.814388 718.697185,118.661175 716.635149,117.848435 C714.573112,117.035695 712.273996,116.629325 709.737802,116.629325 C707.201607,116.629325 704.896978,117.035695 702.823914,117.848435 C700.750851,118.661175 698.981028,119.814388 697.514446,121.308072 C696.047864,122.801757 694.91209,124.624931 694.107124,126.777595 C693.302157,128.930258 692.899674,131.33553 692.899674,133.99341 C692.899674,136.673256 693.302157,139.089511 694.107124,141.242175 C694.91209,143.394838 696.047864,145.228995 697.514446,146.744646 C698.981028,148.260297 700.750851,149.424492 702.823914,150.237232 C704.896978,151.049973 707.201607,151.456343 709.737802,151.456343 Z M709.737802,145.196046 C706.870799,145.196046 704.753628,144.246019 703.386288,142.345964 C702.018948,140.445909 701.335278,137.68369 701.335278,134.059308 C701.335278,130.434926 702.018948,127.661724 703.386288,125.739703 C704.753628,123.817683 706.870799,122.856672 709.737802,122.856672 C712.560697,122.856672 714.650301,123.812191 716.006613,125.723229 C717.362926,127.634267 718.041083,130.41296 718.041083,134.059308 C718.041083,137.705656 717.362926,140.473366 716.006613,142.362438 C714.650301,144.25151 712.560697,145.196046 709.737802,145.196046 Z M740.874711,150.962109 L740.874711,129.907743 C741.712758,128.106535 742.738263,126.739154 743.951226,125.805601 C745.164188,124.872048 746.619743,124.405272 748.317891,124.405272 C749.266207,124.405272 750.027066,124.482153 750.600466,124.635914 C751.173867,124.789676 751.625971,124.866557 751.956779,124.866557 C752.331695,124.866557 752.629422,124.784185 752.849961,124.61944 C753.0705,124.454695 753.21385,124.174629 753.280011,123.779242 L753.280011,123.779242 L754.338597,117.68369 C753.235904,116.914882 751.84651,116.530478 750.170416,116.530478 C748.14146,116.530478 746.310989,117.134541 744.679003,118.342669 C743.047017,119.550796 741.624543,121.198243 740.41158,123.285008 L740.41158,123.285008 L739.915368,119.199341 C739.805099,118.452499 739.58456,117.925316 739.253752,117.617792 C738.922944,117.310269 738.338516,117.156507 737.50047,117.156507 L737.50047,117.156507 L732.703753,117.156507 L732.703753,150.962109 L740.874711,150.962109 Z M767.84344,150.962109 L767.84344,135.476112 L769.695965,135.476112 C770.357581,135.476112 770.853793,135.552993 771.184601,135.706755 C771.515409,135.860516 771.846217,136.190005 772.177025,136.695222 L772.177025,136.695222 L780.811114,149.512356 C781.163975,150.039539 781.560945,150.41296 782.002022,150.632619 C782.4431,150.852279 782.983419,150.962109 783.622982,150.962109 L783.622982,150.962109 L791,150.962109 L779.686366,134.553542 C779.333504,134.048325 778.980643,133.576057 778.627781,133.136738 C778.274919,132.697419 777.866922,132.313015 777.403791,131.983526 C777.866922,131.697968 778.296973,131.362987 778.693942,130.978583 C779.090912,130.594179 779.476855,130.171334 779.85177,129.710049 L779.85177,129.710049 L790.404546,117.156507 L782.928285,117.156507 C782.244615,117.156507 781.693268,117.282812 781.274245,117.53542 C780.855221,117.788029 780.458252,118.133992 780.083336,118.573311 L780.083336,118.573311 L771.647732,128.952224 C771.29487,129.369577 770.964062,129.655135 770.655308,129.808896 C770.346554,129.962658 769.916503,130.039539 769.365157,130.039539 L769.365157,130.039539 L767.84344,130.039539 L767.84344,102 L759.672482,102 L759.672482,150.962109 L767.84344,150.962109 Z" id="ResponsibleTech.Work" fill="#2C82C9" fill-rule="nonzero"></path>
        <g id="mark" transform="translate(-17.926237, -18.088446)">
            <g id="ripples" stroke-linecap="round" stroke-width="8">
                <path d="M87.9888582,118.9132 C91.8767898,117.228069 87.1376052,119.458393 92.2358778,116.947519 C104.897497,110.711736 112.928354,98.8305411 114.14053,83.7974847 C114.886511,74.5460454 111.422523,64.2817549 106.454603,57.9231077 C101.486684,51.5644605 90.7110131,41.772616 75.4828978,42.7064724 C60.2547825,43.6403288 50.5412304,50.809501 43.5968461,60.4465867 C39.0609316,66.7413126 42.2680899,62.8604915 40.8475876,64.7431406" id="Oval" stroke="#F5D51E" transform="translate(77.544611, 80.778735) rotate(-52.000000) translate(-77.544611, -80.778735) "></path>
                <path d="M89.6712514,131.919087 C90.6561045,131.478032 93.5590958,130.070425 98.3802255,127.696264 C116.340223,118.851881 129.163399,103.567766 130.960427,78.9953145 C131.870841,66.5463518 126.683568,52.9095972 119.598689,43.7245526 C109.650093,30.8269021 92.0659495,21.6539182 74.5419864,21.6339682 C56.3929172,21.6133617 40.0599539,33.4035888 30.2097043,47.0722973 C25.9203977,53.0243577 23.4456489,57.5842481 22.7854578,60.7519685" id="Oval" stroke="#5EA756" transform="translate(76.924825, 76.776528) rotate(-51.000000) translate(-76.924825, -76.776528) "></path>
            </g>
            <g filter="url(#filter-1)" id="clarity:cursor-hand-click-line-copy">
                <g transform="translate(29.374214, 58.963762)">
                    <rect id="ViewBox" x="0" y="0" width="122.408836" height="122.124684"></rect>
                    <path d="M103.323877,59.5576052 C97.1918441,53.121021 89.0158001,48.7170424 80.4990875,47.0232044 C76.7517339,46.0069017 73.0043804,45.3293665 69.2570269,44.9905989 C78.795745,33.8112685 77.0924024,16.8728891 65.8503418,7.3873966 C54.6082812,-2.09809587 37.5748561,-0.404257929 28.036138,10.7750725 C18.4974199,21.9544029 20.2007624,38.8927823 31.442823,48.3782748 C33.486834,50.0721127 35.5308451,51.4271831 37.5748561,52.1047182 L37.5748561,59.5576052 L32.12416,54.4760914 C27.354801,49.7333451 19.5194254,49.7333451 14.4093979,54.4760914 C9.64003883,59.2188376 9.29937032,66.6717245 14.0687294,71.4144708 L29.7394805,89.7079205 C30.4208175,94.4506668 32.12416,98.8546454 34.5088396,102.919856 C36.2121821,105.968765 38.5968616,109.017673 40.9815411,111.389046 L40.9815411,117.82563 C40.9815411,119.858236 42.3442151,121.213306 44.3882261,121.213306 L90.7191426,121.213306 C92.4224851,121.213306 94.1258276,119.519468 94.1258276,117.82563 L94.1258276,109.017673 C100.598529,101.226019 104.005214,91.4017585 104.005214,81.5774984 L104.005214,61.9289783 C104.345883,60.573908 104.005214,59.8963728 103.323877,59.5576052 L103.323877,59.5576052 Z M28.3768065,27.7134519 C28.3768065,16.5341215 37.5748561,7.72616419 48.8169167,8.06493178 C60.0589773,8.06493178 68.9163584,17.2116567 68.5756899,28.3909871 C68.5756899,34.4888037 65.8503418,39.9090851 61.0809828,43.6355285 L61.0809828,26.6971491 C60.7198112,20.6019093 55.638318,15.846014 49.4982537,15.8565863 C43.3662206,15.5178187 37.9155246,20.5993325 37.9155246,26.6971491 L37.9155246,44.3130637 C32.12416,40.9253878 28.717475,34.4888037 28.3768065,27.7134519 Z M97.5325126,81.2387308 C97.8731811,90.0466881 94.8071646,98.5158778 89.0158001,105.29123 C88.3344631,105.968765 87.653126,106.6463 87.653126,107.662603 L87.653126,114.776722 L48.1355797,114.776722 L48.1355797,110.033976 C48.1355797,109.017673 47.4542427,108.00137 46.7729057,107.323835 C44.3882261,105.29123 42.3442151,102.919856 40.6408726,99.8709482 C38.5968616,96.4832723 37.2341876,92.4180612 36.5528506,88.3528502 C36.5528506,87.675315 36.2121821,86.9977798 35.8715136,86.3202447 L19.5194254,67.0104921 C18.4974199,65.9941894 17.8160829,64.639119 17.8160829,62.9452811 C17.8160829,61.5902107 18.4974199,59.8963728 19.5194254,58.88007 C21.9041049,56.8474645 25.31079,56.8474645 27.6954695,58.88007 L37.5748561,68.7043301 L37.5748561,78.8673577 L44.0475576,75.4796818 L44.0475576,26.6971491 C44.3882261,24.325776 46.4322372,22.2931705 49.1575852,22.6319381 C51.5422647,22.6319381 53.9269442,24.325776 53.9269442,26.6971491 L53.9269442,65.6554218 L60.7403143,67.0104921 L60.7403143,51.4271831 C61.0809828,51.0884155 61.4216513,51.0884155 61.7623198,50.7496479 C64.1469993,50.7496479 66.5316789,51.0884155 68.9163584,51.4271831 L68.9163584,68.7043301 L74.3670544,69.7206328 L74.3670544,52.1047182 L78.4550765,53.121021 C80.158419,53.4597886 81.8617615,54.1373238 83.565104,54.814859 L83.565104,71.7532384 L89.0158001,72.7695411 L89.0158001,57.1862321 C92.0818166,58.5413024 94.8071646,60.573908 97.1918441,62.9452811 L97.5325126,81.2387308 L97.5325126,81.2387308 Z" id="Shape" fill="#000000" fill-rule="nonzero"></path>
                </g>
            </g>
        </g>
    </g>
</svg>