<?xml version="1.0" encoding="UTF-8"?>
<svg width="2635px" height="540px" viewBox="0 0 2635 540" version="1.1" xmlns="http://www.w3.org/2000/svg" xmlns:xlink="http://www.w3.org/1999/xlink">
    <title>RTW logo</title>
    <defs>
        <filter color-interpolation-filters="auto" id="filter-1">
            <feColorMatrix in="SourceGraphic" type="matrix" values="0 0 0 0 0.172549 0 0 0 0 0.509804 0 0 0 0 0.788235 0 0 0 1.000000 0"></feColorMatrix>
        </filter>
    </defs>
    <g id="RTW-logo" stroke="none" stroke-width="1" fill="none" fill-rule="evenodd">
        <text id="ResponsibleTech.Work" font-family="Lato-Bold, Lato" font-size="218" font-weight="bold" letter-spacing="-0.519047619" fill="#2C82C9">
            <tspan x="395.5" y="498">ResponsibleTech.Work</tspan>
        </text>
        <g id="ripples" transform="translate(-57.709415, -58.800925)" stroke-linecap="round" stroke-width="18">
            <path d="M289.086257,390.902553 C301.879218,385.34916 286.284617,392.697741 303.061234,384.425668 C344.726156,363.881879 371.182255,324.798942 375.224616,275.381199 C377.712311,244.969203 366.357923,211.243599 350.042894,190.361314 C333.727865,169.479029 298.324906,137.333447 248.238891,140.45946 C198.152876,143.585473 166.18016,167.186357 143.305594,198.88894 C128.364445,219.596349 138.926603,206.828306 134.247845,213.021789" id="Oval" stroke="#F5D51E" transform="translate(254.907259, 265.574994) rotate(-52.000000) translate(-254.907259, -265.574994) "></path>
            <path d="M294.55567,433.63005 C297.796196,432.176578 307.3485,427.538779 323.212581,419.716651 C382.310524,390.577134 424.539116,340.288756 430.540814,259.509863 C433.58141,218.585439 416.573029,173.779409 393.307371,143.613699 C360.637707,101.254974 302.843164,71.1681452 245.212329,71.1681452 C185.525715,71.1681452 131.767575,109.984873 99.3220602,154.952135 C85.1936104,174.5332 77.0378841,189.531277 74.8548814,199.946367" id="Oval" stroke="#5EA756" transform="translate(252.873903, 252.399097) rotate(-51.000000) translate(-252.873903, -252.399097) "></path>
        </g>
        <g filter="url(#filter-1)" id="clarity:cursor-hand-click-line-copy">
            <g transform="translate(39.000000, 135.000000)">
                <rect id="ViewBox" x="0" y="0" width="402" height="402"></rect>
                <path d="M339.323534,196.04683 C319.185467,174.859411 292.334711,160.362756 264.365174,154.78712 C252.058578,151.441738 239.751982,149.211483 227.445386,148.096356 C258.771267,111.297155 253.17736,55.5407896 216.257571,24.317225 C179.337782,-6.90633956 123.398708,-1.33070303 92.0728265,35.4684981 C60.746945,72.2676992 66.3408524,128.024065 103.260641,159.247629 C109.97333,164.823266 116.686019,169.283775 123.398708,171.514029 L123.398708,196.04683 L105.498204,179.319921 C89.8352635,163.708138 64.1032895,163.708138 47.3215672,179.319921 C31.6586265,194.931703 30.539845,219.464504 46.2027858,235.076286 L97.6667339,295.29316 C99.9042968,310.904943 105.498204,325.401598 113.329675,338.783125 C118.923582,348.819271 126.755052,358.855417 134.586523,366.661308 L134.586523,387.848727 C134.586523,394.539491 139.061649,399 145.774338,399 L297.928619,399 C303.522526,399 309.116434,393.424363 309.116434,387.848727 L309.116434,358.855417 C330.373282,333.207489 341.561097,300.868797 341.561097,268.530105 L341.561097,203.852721 C342.679878,199.392212 341.561097,197.161958 339.323534,196.04683 L339.323534,196.04683 Z M93.1916079,91.2248634 C93.1916079,54.4256623 123.398708,25.4323523 160.318497,26.5474796 C197.238286,26.5474796 226.326604,56.6559169 225.207823,93.455118 C225.207823,113.52741 216.257571,131.369446 200.59463,143.635847 L200.59463,87.8794815 C199.408515,67.8156719 182.720502,52.1606066 162.55606,52.1954077 C142.417993,51.0802804 124.517489,67.80719 124.517489,87.8794815 L124.517489,145.866101 C105.498204,134.714828 94.3103894,113.52741 93.1916079,91.2248634 Z M320.304248,267.414978 C321.42303,296.408288 311.353997,324.28647 292.334711,346.589017 C290.097149,348.819271 287.859586,351.049526 287.859586,354.394908 L287.859586,377.812581 L158.080934,377.812581 L158.080934,362.200799 C158.080934,358.855417 155.843371,355.510035 153.605808,353.27978 C145.774338,346.589017 139.061649,338.783125 133.467741,328.74698 C126.755052,317.595707 122.279926,304.214179 120.042363,290.832651 C120.042363,288.602397 118.923582,286.372142 117.804801,284.141887 L64.1032895,220.579631 C60.746945,217.234249 58.5093821,212.77374 58.5093821,207.198103 C58.5093821,202.737594 60.746945,197.161958 64.1032895,193.816576 C71.9347598,187.125812 83.1225746,187.125812 90.954045,193.816576 L123.398708,226.155267 L123.398708,259.609087 L144.655556,248.457814 L144.655556,87.8794815 C145.774338,80.0735903 152.487026,73.3828265 161.437278,74.4979538 C169.268749,74.4979538 177.100219,80.0735903 177.100219,87.8794815 L177.100219,216.119122 L199.475849,220.579631 L199.475849,169.283775 C200.59463,168.168648 201.713412,168.168648 202.832193,167.05352 C210.663663,167.05352 218.495134,168.168648 226.326604,169.283775 L226.326604,226.155267 L244.227108,229.500649 L244.227108,171.514029 L257.652486,174.859411 C263.246393,175.974539 268.8403,178.204793 274.434208,180.435048 L274.434208,236.191413 L292.334711,239.536795 L292.334711,188.240939 C302.403745,192.701448 311.353997,199.392212 319.185467,207.198103 L320.304248,267.414978 L320.304248,267.414978 Z" id="Shape" fill="#000000" fill-rule="nonzero"></path>
            </g>
        </g>
    </g>
</svg>