<?xml version="1.0" encoding="UTF-8"?>
<svg width="450px" height="300px" viewBox="0 0 450 300" version="1.1" xmlns="http://www.w3.org/2000/svg" xmlns:xlink="http://www.w3.org/1999/xlink">
    <title>Placeholder</title>
    <defs>
        <filter color-interpolation-filters="auto" id="filter-1">
            <feColorMatrix in="SourceGraphic" type="matrix" values="0 0 0 0 0.172549 0 0 0 0 0.509804 0 0 0 0 0.788235 0 0 0 1.000000 0"></feColorMatrix>
        </filter>
    </defs>
    <g id="Placeholder" stroke="none" stroke-width="1" fill="none" fill-rule="evenodd">
        <g id="mark" transform="translate(-25.100694, -24.880182)">
            <g id="ripples" stroke-linecap="round" stroke-width="18">
                <path d="M154.248671,208.848107 C161.099038,205.863489 152.747622,209.811007 161.732571,205.368519 C184.046795,194.335549 198.252975,173.421745 200.485765,147.019721 C201.859838,130.771747 195.835098,112.773628 187.138742,101.642801 C178.442387,90.5119743 159.552807,73.3922217 132.759409,75.133621 C105.966011,76.8750202 88.8313711,89.5270559 76.5513624,106.493557 C68.5303389,117.575692 74.1978642,110.740595 71.6865307,114.055506" id="Oval" stroke="#F5D51E" transform="translate(136.183825, 141.929290) rotate(-52.000000) translate(-136.183825, -141.929290) "></path>
                <path d="M157.093198,231.642293 C158.828355,230.861182 163.943694,228.369916 172.439217,224.168494 C204.08731,208.517073 226.744036,181.592364 230.070294,138.432015 C231.755452,116.566002 222.72385,92.6553681 210.32469,76.5745467 C192.913774,53.9938382 162.048168,38.004953 131.226722,38.0877467 C99.3058286,38.1741504 70.4995498,58.9873885 53.0825686,83.0554752 C45.4983169,93.5359611 41.1149367,101.559623 39.932428,107.126462" id="Oval" stroke="#5EA756" transform="translate(135.102592, 134.865020) rotate(-51.000000) translate(-135.102592, -134.865020) "></path>
            </g>
            <g filter="url(#filter-1)" id="clarity:cursor-hand-click-line-copy">
                <g transform="translate(53.100694, 103.880182)">
                    <rect id="ViewBox" x="0" y="0" width="214" height="214"></rect>
                    <path d="M180.634916,104.363238 C169.914652,93.0843633 155.620966,85.3672385 140.73171,82.3991136 C134.180437,80.6182386 127.629164,79.4309886 121.077892,78.8373637 C137.753859,59.2477392 134.776007,29.56649 115.122189,12.9449904 C95.4683715,-3.67650912 65.6898594,-0.708384199 49.0138927,18.8812403 C32.337926,38.4708647 35.3157772,68.152114 54.9695951,84.7736135 C58.5430165,87.7417384 62.116438,90.1162384 65.6898594,91.3034883 L65.6898594,104.363238 L56.1607356,95.4588632 C47.8227522,87.1481134 34.1246367,87.1481134 25.1910831,95.4588632 C16.8530997,103.769613 16.2575295,116.829363 24.5955128,125.140112 L51.9917439,157.195862 C53.1828844,165.506611 56.1607356,173.223736 60.3297273,180.347236 C63.3075785,185.689861 67.4765702,191.032486 71.6455618,195.187861 L71.6455618,206.466735 C71.6455618,210.028485 74.0278428,212.402985 77.6012643,212.402985 L158.598817,212.402985 C161.576668,212.402985 164.554519,209.43486 164.554519,206.466735 L164.554519,191.032486 C175.870354,177.379111 181.826056,160.163986 181.826056,142.948862 L181.826056,108.518613 C182.421627,106.144113 181.826056,104.956863 180.634916,104.363238 L180.634916,104.363238 Z M49.6094629,48.5624895 C49.6094629,28.972865 65.6898594,13.5386154 85.3436774,14.1322404 C104.997495,14.1322404 120.482322,30.160115 119.886751,49.7497394 C119.886751,60.4349892 115.122189,69.9329889 106.784206,76.4628637 L106.784206,46.7816145 C106.152792,36.10088 97.2691227,27.7670891 86.5348179,27.785615 C75.8145535,27.1919901 66.2854297,36.0963648 66.2854297,46.7816145 L66.2854297,77.6501137 C56.1607356,71.7138639 50.2050332,60.4349892 49.6094629,48.5624895 Z M170.510222,142.355237 C171.105792,157.789487 165.74566,172.630111 155.620966,184.502611 C154.429825,185.689861 153.238685,186.877111 153.238685,188.657986 L153.238685,201.12411 L84.1525369,201.12411 L84.1525369,192.813361 C84.1525369,191.032486 82.9613964,189.251611 81.7702559,188.064361 C77.6012643,184.502611 74.0278428,180.347236 71.0499916,175.004611 C67.4765702,169.068361 65.0942892,161.944861 63.9031487,154.821362 C63.9031487,153.634112 63.3075785,152.446862 62.7120082,151.259612 L34.1246367,117.422988 C32.337926,115.642113 31.1467855,113.267613 31.1467855,110.299488 C31.1467855,107.924988 32.337926,104.956863 34.1246367,103.175988 C38.2936284,99.6142381 44.2493308,99.6142381 48.4183225,103.175988 L65.6898594,120.391113 L65.6898594,138.199862 L77.005694,132.263612 L77.005694,46.7816145 C77.6012643,42.6262396 81.1746857,39.0644897 85.9392476,39.6581147 C90.1082393,39.6581147 94.277231,42.6262396 94.277231,46.7816145 L94.277231,115.048488 L106.188636,117.422988 L106.188636,90.1162384 C106.784206,89.5226134 107.379776,89.5226134 107.975347,88.9289884 C112.144338,88.9289884 116.31333,89.5226134 120.482322,90.1162384 L120.482322,120.391113 L130.011445,122.171987 L130.011445,91.3034883 L137.158288,93.0843633 C140.13614,93.6779883 143.113991,94.8652382 146.091842,96.0524882 L146.091842,125.733737 L155.620966,127.514612 L155.620966,100.207863 C160.981098,102.582363 165.74566,106.144113 169.914652,110.299488 L170.510222,142.355237 L170.510222,142.355237 Z" id="Shape" fill="#000000" fill-rule="nonzero"></path>
                </g>
            </g>
        </g>
        <text id="TODO-image-that-visu" font-family="Lato-Regular, Lato" font-size="30" font-weight="normal" fill="#2C82C9">
            <tspan x="245" y="108">TODO </tspan>
            <tspan x="245" y="144">image that </tspan>
            <tspan x="245" y="180">visualizes the </tspan>
            <tspan x="245" y="216">message</tspan>
        </text>
    </g>
</svg>