<?xml version="1.0" encoding="UTF-8"?>
<svg width="729px" height="458px" viewBox="0 0 729 458" version="1.1" xmlns="http://www.w3.org/2000/svg" xmlns:xlink="http://www.w3.org/1999/xlink">
    <title>Responsible product dev</title>
    <defs>
        <filter color-interpolation-filters="auto" id="filter-1">
            <feColorMatrix in="SourceGraphic" type="matrix" values="0 0 0 0 0.368627 0 0 0 0 0.654902 0 0 0 0 0.337255 0 0 0 1.000000 0"></feColorMatrix>
        </filter>
        <filter color-interpolation-filters="auto" id="filter-2">
            <feColorMatrix in="SourceGraphic" type="matrix" values="0 0 0 0 0.960784 0 0 0 0 0.835294 0 0 0 0 0.117647 0 0 0 1.000000 0"></feColorMatrix>
        </filter>
    </defs>
    <g id="Responsible-product-dev" stroke="none" stroke-width="1" fill="none" fill-rule="evenodd">
        <g id="laptop" transform="translate(0.000000, 16.000000)">
            <path d="M656,-8 C662.075132,-8 667.575132,-5.53756612 671.556349,-1.55634919 C675.537566,2.42486775 678,7.92486775 678,14 L678,14 L678,402 L43,402 L43,14 C43,7.92486775 45.4624339,2.42486775 49.4436508,-1.55634919 C53.4248678,-5.53756612 58.9248678,-8 65,-8 L65,-8 Z" id="screen" stroke="#242D3B" stroke-width="16"></path>
            <rect id="base" fill="#242D3B" x="0" y="404.749652" width="729" height="36.5006954" rx="12"></rect>
        </g>
        <g id="code" transform="translate(80.873239, 26.000000)">
            <rect id="Rectangle" fill="#E0E0E4" x="0.126760563" y="0" width="248" height="25" rx="6"></rect>
            <rect id="Rectangle" fill="#E0E0E4" x="0.126760563" y="44" width="314" height="25" rx="6"></rect>
            <rect id="Rectangle" fill="#E0E0E4" transform="translate(395.126761, 56.500000) scale(-1, 1) translate(-395.126761, -56.500000) " x="334.126761" y="44" width="122" height="25" rx="6"></rect>
            <rect id="Rectangle" fill="#E0E0E4" x="0.126760563" y="88" width="62" height="25" rx="6"></rect>
            <rect id="Rectangle" fill="#E0E0E4" x="82.1267606" y="88" width="130" height="25" rx="6"></rect>
            <rect id="Rectangle" fill="#E0E0E4" x="0.126760563" y="132" width="169" height="25" rx="6"></rect>
            <rect id="Rectangle" fill="#E0E0E4" x="189.126761" y="132" width="169" height="25" rx="6"></rect>
            <rect id="Rectangle" fill="#E0E0E4" x="0.126760563" y="261" width="130" height="25" rx="6"></rect>
            <rect id="Rectangle" fill="#E0E0E4" x="150.126761" y="261" width="164" height="25" rx="6"></rect>
            <rect id="Rectangle" fill="#E0E0E4" x="334.126761" y="261" width="97" height="25" rx="6"></rect>
            <rect id="Rectangle" fill="#E0E0E4" x="0.126760563" y="305" width="200" height="25" rx="6"></rect>
            <rect id="Rectangle" fill="#E0E0E4" x="0.126760563" y="349" width="232" height="25" rx="6"></rect>
            <rect id="Rectangle" fill="#E0E0E4" x="252.126761" y="349" width="130" height="25" rx="6"></rect>
            <g id="impact" transform="translate(0.000000, 164.000000)">
                <text id="&lt;impact-class=&quot;-soci" font-family="PTMono-Bold, PT Mono" font-size="40" font-weight="bold">
                    <tspan x="0.126760563" y="37" fill="#2C82C9">&lt;impact class="  </tspan>
                    <tspan x="408.126761" y="37" fill="#F5D51E">social      </tspan>
                    <tspan x="0.126760563" y="81" fill="#FFFFFF">oo</tspan>
                    <tspan x="48.1267606" y="81" fill="#5EA756">environmental</tspan>
                    <tspan x="360.126761" y="81" fill="#2C82C9">"&gt;</tspan>
                </text>
                <g id="mdi:leaf" transform="translate(0.000000, 46.000000)" filter="url(#filter-1)">
                    <g>
                        <rect id="ViewBox" x="0" y="0" width="40" height="40"></rect>
                        <path d="M28.3333333,13.3333333 C13.3333333,16.6666667 9.83333333,26.95 6.36666667,35.5666667 L9.51666667,36.6666667 L11.1,32.8333333 C11.9,33.1166667 12.7333333,33.3333333 13.3333333,33.3333333 C31.6666667,33.3333333 36.6666667,5 36.6666667,5 C35,8.33333333 23.3333333,8.75 15,10.4166667 C6.66666667,12.0833333 3.33333333,19.1666667 3.33333333,22.5 C3.33333333,25.8333333 6.25,28.75 6.25,28.75 C11.6666667,13.3333333 28.3333333,13.3333333 28.3333333,13.3333333 Z" id="Path" fill="#000000" fill-rule="nonzero"></path>
                    </g>
                </g>
                <g id="mdi:account-group" transform="translate(357.126761, 0.000000)" filter="url(#filter-2)">
                    <g>
                        <rect id="ViewBox" x="0" y="0" width="44" height="44"></rect>
                        <path d="M22,10.0833333 C25.5438271,10.0833333 28.4166667,12.9561729 28.4166667,16.5 C28.4166667,20.0438271 25.5438271,22.9166667 22,22.9166667 C18.4561729,22.9166667 15.5833333,20.0438271 15.5833333,16.5 C15.5833333,12.9561729 18.4561729,10.0833333 22,10.0833333 M9.16666667,14.6666667 C10.1933333,14.6666667 11.1466667,14.9416667 11.9716667,15.4366667 C11.6966667,18.0583333 12.4666667,20.6616667 14.0433333,22.6966667 C13.1266667,24.4566667 11.2933333,25.6666667 9.16666667,25.6666667 C6.12910054,25.6666667 3.66666667,23.2042328 3.66666667,20.1666667 C3.66666667,17.1291005 6.12910054,14.6666667 9.16666667,14.6666667 M34.8333333,14.6666667 C37.8708995,14.6666667 40.3333333,17.1291005 40.3333333,20.1666667 C40.3333333,23.2042328 37.8708995,25.6666667 34.8333333,25.6666667 C32.7066667,25.6666667 30.8733333,24.4566667 29.9566667,22.6966667 C31.5551017,20.6331015 32.2970419,18.0330279 32.0283333,15.4366667 C32.8533333,14.9416667 33.8066667,14.6666667 34.8333333,14.6666667 M10.0833333,33.4583333 C10.0833333,29.6633333 15.4183333,26.5833333 22,26.5833333 C28.5816667,26.5833333 33.9166667,29.6633333 33.9166667,33.4583333 L33.9166667,36.6666667 L10.0833333,36.6666667 L10.0833333,33.4583333 M0,36.6666667 L0,33.9166667 C0,31.3683333 3.465,29.2233333 8.15833333,28.6 C7.07666667,29.8466667 6.41666667,31.57 6.41666667,33.4583333 L6.41666667,36.6666667 L0,36.6666667 M44,36.6666667 L37.5833333,36.6666667 L37.5833333,33.4583333 C37.5833333,31.57 36.9233333,29.8466667 35.8416667,28.6 C40.535,29.2233333 44,31.3683333 44,33.9166667 L44,36.6666667 Z" id="Shape" fill="#000000" fill-rule="nonzero"></path>
                    </g>
                </g>
            </g>
        </g>
    </g>
</svg>