<?xml version="1.0" encoding="UTF-8"?>
<svg width="772px" height="549px" viewBox="0 0 772 549" version="1.1" xmlns="http://www.w3.org/2000/svg" xmlns:xlink="http://www.w3.org/1999/xlink">
    <title>Responsible product decisions</title>
    <defs>
        <filter color-interpolation-filters="auto" id="filter-1">
            <feColorMatrix in="SourceGraphic" type="matrix" values="0 0 0 0 0.172549 0 0 0 0 0.509804 0 0 0 0 0.788235 0 0 0 1.000000 0"></feColorMatrix>
        </filter>
    </defs>
    <g id="Responsible-product-decisions" stroke="none" stroke-width="1" fill="none" fill-rule="evenodd">
        <g id="whiteboard" transform="translate(40.000000, 1.000000)" stroke="#242D3B" stroke-width="2">
            <rect id="Rectangle" x="0" y="0" width="731" height="420" rx="6"></rect>
        </g>
        <line x1="79.5" y1="70.5" x2="722.5" y2="70.5" id="Line" stroke="#242D3B" stroke-linecap="square"></line>
        <line x1="232.5" y1="27.5" x2="232.5" y2="336.5" id="Line-2" stroke="#242D3B" stroke-linecap="square"></line>
        <line x1="391.5" y1="27.5" x2="391.5" y2="336.5" id="Line-3" stroke="#242D3B" stroke-linecap="square"></line>
        <line x1="547.5" y1="27.5" x2="547.5" y2="336.5" id="Line-4" stroke="#242D3B" stroke-linecap="square"></line>
        <rect id="Rectangle" fill="#FFF7E6" x="89" y="99" width="39" height="38" rx="4"></rect>
        <rect id="Rectangle" fill="#E0E0E4" x="162" y="122" width="39" height="38" rx="4"></rect>
        <rect id="Rectangle" fill="#E0E0E4" x="162" y="122" width="39" height="38" rx="4"></rect>
        <rect id="Rectangle" fill="#E0E0E4" x="79" y="299" width="39" height="38" rx="4"></rect>
        <rect id="Rectangle" fill="#E0E0E4" x="581" y="148" width="39" height="38" rx="4"></rect>
        <rect id="Rectangle" fill="#E0E0E4" x="420" y="89" width="39" height="38" rx="4"></rect>
        <rect id="Rectangle" fill="#E0E0E4" x="690" y="173" width="39" height="38" rx="4"></rect>
        <rect id="Rectangle" fill="#E0E0E4" x="670" y="254" width="39" height="38" rx="4"></rect>
        <rect id="Rectangle" fill="#FFF7E6" x="111" y="173" width="39" height="38" rx="4"></rect>
        <rect id="Rectangle" fill="#FFF7E6" x="267" y="103" width="39" height="38" rx="4"></rect>
        <rect id="Rectangle" fill="#FFF7E6" x="324" y="137" width="39" height="38" rx="4"></rect>
        <rect id="Rectangle" fill="#FFF7E6" x="287" y="247" width="39" height="38" rx="4"></rect>
        <rect id="Rectangle" fill="#FFF7E6" x="472" y="137" width="39" height="38" rx="4"></rect>
        <rect id="Rectangle" fill="#FFF7E6" x="588" y="91" width="39" height="38" rx="4"></rect>
        <rect id="Rectangle" fill="#FFF7E6" x="656" y="99" width="39" height="38" rx="4"></rect>
        <rect id="Rectangle" fill="#FFF7E6" x="595" y="291" width="39" height="38" rx="4"></rect>
        <rect id="Rectangle" fill="#FFF7E6" x="153" y="230" width="39" height="38" rx="4"></rect>
        <rect id="Rectangle" fill="#FFF7E6" x="173" y="329" width="39" height="38" rx="4"></rect>
        <rect id="Rectangle" fill="#E0E0E4" x="273" y="182" width="39" height="38" rx="4"></rect>
        <g id="symbols" transform="translate(91.976864, 103.000000)">
            <rect id="Ethics" fill="#2C82C9" x="186.023136" y="85.034188" width="12" height="12"></rect>
            <rect id="Ethics" fill="#2C82C9" x="200.023136" y="149.034188" width="12" height="12"></rect>
            <rect id="Ethics" fill="#2C82C9" x="180.023136" y="6.03418803" width="12" height="12"></rect>
            <rect id="Ethics" fill="#2C82C9" x="24.0231362" y="76.034188" width="12" height="12"></rect>
            <circle id="Inclusion" fill="#F5D51E" cx="208" cy="91" r="6"></circle>
            <circle id="Inclusion" fill="#F5D51E" cx="203" cy="12" r="6"></circle>
            <circle id="Inclusion" fill="#F5D51E" cx="82" cy="31" r="6"></circle>
            <circle id="Inclusion" fill="#F5D51E" cx="6" cy="6" r="6"></circle>
            <polygon id="Sustainability" fill="#5EA756" points="201.606684 99.982906 207.606684 111.982906 195.606684 111.982906"></polygon>
            <polygon id="Sustainability" fill="#5EA756" points="223.606684 148.982906 229.606684 160.982906 217.606684 160.982906"></polygon>
            <polygon id="Sustainability" fill="#5EA756" points="97.6066838 24.982906 103.606684 36.982906 91.6066838 36.982906"></polygon>
            <polygon id="Sustainability" fill="#5EA756" points="242.606684 39.982906 248.606684 51.982906 236.606684 51.982906"></polygon>
        </g>
        <g id="RTW" transform="translate(338.157150, 192.000000)">
            <rect id="Rectangle" stroke="#242D3B" fill="#FFFFFF" x="0.842849682" y="7" width="133" height="173" rx="1"></rect>
            <g id="mark" transform="translate(0.000000, 6.811941)">
                <g id="ripples" stroke-linecap="round" stroke-width="6">
                    <path d="M74.7661193,101.004565 C78.0663217,99.5757186 74.0436659,101.467113 78.3710437,99.3376437 C89.1181367,94.0490826 95.9293784,83.9619075 96.9486251,71.1928148 C97.575876,63.3346332 94.6276738,54.613269 90.4050586,49.208568 C86.1824434,43.803867 77.0260474,35.4789417 64.096146,36.2620415 C51.1662446,37.0451413 42.9230429,43.1285426 37.0328501,51.3101741 C33.1855096,56.6542304 35.9061862,53.3597898 34.7012639,54.9580666" id="Oval" stroke="#F5D51E" transform="translate(65.867021, 68.607555) rotate(-52.000000) translate(-65.867021, -68.607555) "></path>
                    <path d="M76.2061438,112.05653 C77.0421302,111.682548 79.5062439,110.488836 83.5984849,108.475395 C98.8431769,100.974788 109.721627,88.0006136 111.231022,67.1292108 C111.995716,56.5552837 107.581788,44.968304 101.559513,37.1614692 C93.1030276,26.1991025 78.1653613,18.3954444 63.2849582,18.3666582 C47.8737487,18.3369798 34.0126279,28.340974 25.6575369,39.9449733 C22.0192996,44.9979528 19.9209481,48.869601 19.3624825,51.5599178" id="Oval" stroke="#5EA756" transform="translate(65.339844, 65.211594) rotate(-51.000000) translate(-65.339844, -65.211594) "></path>
                </g>
                <g filter="url(#filter-1)" id="clarity:cursor-hand-click-line-copy">
                    <g transform="translate(24.842850, 50.188059)">
                        <rect id="ViewBox" x="0" y="0" width="104" height="104"></rect>
                        <path d="M87.7851928,50.7185829 C82.5753447,45.2372607 75.6288806,41.4868823 68.3929805,40.044429 C65.2091844,39.1789571 62.0253883,38.6019758 58.8415923,38.3134851 C66.9458004,28.7932938 65.4986204,14.3687615 55.9472322,6.29102339 C46.3958441,-1.78671471 31.9240438,-0.34426148 23.8198357,9.17592985 C15.7156276,18.6961212 17.1628076,33.1206535 26.7141958,41.1983916 C28.4508118,42.6408448 30.1874278,43.7948074 31.9240438,44.3717887 L31.9240438,50.7185829 L27.2930678,46.3912232 C23.2409637,42.3523542 16.5839356,42.3523542 12.2423955,46.3912232 C8.19029144,50.4300923 7.90085543,56.7768865 11.9529595,60.8157556 L25.2670157,76.3942505 C25.8458877,80.4331195 27.2930678,84.1834979 29.3191198,87.6453857 C30.7662998,90.2418015 32.7923519,92.8382173 34.8184039,94.8576518 L34.8184039,100.338974 C34.8184039,102.069918 35.9761479,103.223881 37.7127639,103.223881 L77.0760606,103.223881 C78.5232406,103.223881 79.9704207,101.781427 79.9704207,100.338974 L79.9704207,92.8382173 C85.4697047,86.2029325 88.3640648,77.8367037 88.3640648,69.470475 L88.3640648,52.7380175 C88.6535008,51.5840549 88.3640648,51.0070736 87.7851928,50.7185829 L87.7851928,50.7185829 Z M24.1092717,23.6004622 C24.1092717,14.0802708 31.9240438,6.57951403 41.475432,6.86800468 C51.0268202,6.86800468 58.5521563,14.6572521 58.2627203,24.1774435 C58.2627203,29.3702751 55.9472322,33.9861254 51.8951282,37.1595226 L51.8951282,22.7349902 C51.5882725,17.5443529 47.2709755,13.4942863 42.054304,13.5032895 C36.8444559,13.2147989 32.2134798,17.5421586 32.2134798,22.7349902 L32.2134798,37.7365039 C27.2930678,34.8515974 24.3987077,29.3702751 24.1092717,23.6004622 Z M82.8647807,69.1819843 C83.1542167,76.6827411 80.5492927,83.8950073 75.6288806,89.6648202 C75.0500086,90.2418015 74.4711366,90.8187828 74.4711366,91.6842547 L74.4711366,97.7425583 L40.89656,97.7425583 L40.89656,93.7036893 C40.89656,92.8382173 40.317688,91.9727454 39.738816,91.3957641 C37.7127639,89.6648202 35.9761479,87.6453857 34.5289679,85.0489699 C32.7923519,82.1640634 31.6346078,78.7021756 31.0557358,75.2402879 C31.0557358,74.6633066 30.7662998,74.0863253 30.4768638,73.509344 L16.5839356,57.0653772 C15.7156276,56.1999052 15.1367556,55.0459426 15.1367556,53.6034894 C15.1367556,52.4495268 15.7156276,51.0070736 16.5839356,50.1416016 C18.6099876,48.4106578 21.5043477,48.4106578 23.5303997,50.1416016 L31.9240438,58.5078304 L31.9240438,67.1625498 L37.4233279,64.2776433 L37.4233279,22.7349902 C37.7127639,20.7155557 39.44938,18.9846118 41.764868,19.2731025 C43.79092,19.2731025 45.8169721,20.7155557 45.8169721,22.7349902 L45.8169721,55.9114146 L51.6056922,57.0653772 L51.6056922,43.7948074 C51.8951282,43.5063168 52.1845642,43.5063168 52.4740002,43.2178261 C54.5000522,43.2178261 56.5261043,43.5063168 58.5521563,43.7948074 L58.5521563,58.5078304 L63.1831324,59.3733023 L63.1831324,44.3717887 L66.6563644,45.2372607 C68.1035445,45.5257513 69.5507245,46.1027326 70.9979045,46.6797139 L70.9979045,61.1042462 L75.6288806,61.9697182 L75.6288806,48.6991484 C78.2338046,49.853111 80.5492927,51.5840549 82.5753447,53.6034894 L82.8647807,69.1819843 L82.8647807,69.1819843 Z" id="Shape" fill="#000000" fill-rule="nonzero"></path>
                    </g>
                </g>
            </g>
            <rect id="Rectangle" fill="#FFF7E6" x="15.8428497" y="0" width="8" height="14"></rect>
            <rect id="Rectangle" fill="#FFF7E6" x="112.84285" y="0" width="8" height="12"></rect>
        </g>
        <g id="left" transform="translate(1.000000, 203.423691)">
            <g id="left-person" transform="translate(14.000000, 0.000000)" fill="#242D3B">
                <path d="M118.155405,141.1532 C122.673508,141.1532 135.409995,141.1532 156.364865,141.1532 C154.895315,138.962436 153.131801,136.603907 151.074324,134.077613 C148.330456,130.708527 147.350726,126.384558 148.135135,121.105705 C159.534672,124.164023 166.980618,123.967479 170.472973,120.516073 C178.421174,112.661066 171.648649,80.4210828 166.358108,66.8595422 C163.944144,60.671693 171.67384,51.302439 162.831081,36.7882999 C161.641813,34.836284 161.073397,33.5317122 160.936873,32.6714206 C160.830073,31.9984286 161.657422,32.1914573 163.418919,33.2505067 C162.243243,32.0712423 161.851351,31.285066 162.243243,30.8919779 C162.831081,30.3023457 163.397111,30.9003549 164.006757,30.8919779 C164.544338,30.8845911 162,30.0763091 163,29.5763091 C163.666667,29.2429757 164.981982,29.2884439 166.945946,29.7127135 C165.103604,28.9265372 164.574324,28.336905 165.358108,27.9438169 C166.141892,27.5507287 166.72973,26.7645525 167.121622,25.5852881 C165.554054,26.7645525 164.574324,26.9610965 164.182432,26.1749203 C163.594595,24.9956559 165.959614,24.572659 165.945946,24.4060237 C165.90233,23.8742822 164.182432,24.9956559 164.182432,23.8163915 C164.182432,22.6371271 165.619938,21.7622919 165.519121,21.2414569 C165.464887,20.9612765 163.656696,22.3183724 163.594595,22.0474949 C163.534441,21.7851122 164.122279,20.6058478 165.358108,18.5097016 C164.182432,19.688966 163.398649,19.8855101 163.006757,19.0993338 C162.614865,18.3131576 163.202703,17.7235254 164.77027,17.3304372 L164.182432,16.1511728 C163.006757,16.544261 162.222973,16.3477169 161.831081,15.5615406 C161.439189,14.7753644 161.960931,14.2636812 163.396305,14.0264912 C161.177147,14.2636812 159.871622,14.1857322 159.47973,13.792644 C159.087838,13.3995559 159.087838,12.8099237 159.47973,12.0237474 C159.47973,12.8099237 159.283784,13.0064678 158.891892,12.6133796 C158.5,12.2202915 158.6913,11.1864338 159.465793,9.51180658 C157.515625,10.7933457 156.148649,11.0410271 155.364865,10.2548508 C154.581081,9.46867455 154.728856,8.29071699 155.808189,6.72097812 C155.120748,7.89762885 154.385135,8.48595422 153.601351,8.48595422 C152.817568,8.48595422 152.501692,7.31721545 152.653726,4.97973792 C152.109801,6.53103918 151.25,7.11014575 150.074324,6.71705761 C148.898649,6.32396948 148.526876,5.30130845 148.959007,3.64907452 C148.801651,5.30130845 147.939189,5.93088134 146.371622,5.53779321 C144.804054,5.14470507 145,4.35852881 146.959459,3.1792644 C143.824324,4.35852881 142.060811,4.94816101 141.668919,4.94816101 C141.277027,4.94816101 141.358356,3.8760055 141.912905,1.73169449 C140.903159,4.25807693 140.233993,5.5267765 139.905405,5.53779321 C139.473177,5.55228476 138.885339,4.56956442 138.141892,2.5896322 C138.533784,4.16198474 138.141892,5.14470507 136.966216,5.53779321 C135.790541,5.93088134 135.069641,4.2770533 134.803519,0.57630907 C135.069641,3.09778889 134.810811,4.55507287 134.027027,4.94816101 C133.243243,5.34124914 132.900901,4.38396516 133,2.07630907 C132.842342,2.3498876 132.175676,2.68322094 131,3.07630907 C129.824324,3.4693972 128.490991,2.80273054 127,1.07630907 C128.333333,2.4096424 128.166667,3.24297574 126.5,3.57630907 C124.833333,3.9096424 124.207207,2.71753938 124.621622,0 C123.89818,2.37180665 123.310342,3.55107105 122.858108,3.53779321 C122.208487,3.51871998 122.012541,2.53599964 122.27027,0.589632201 C121.486486,2.7091418 120.560142,3.77549893 119.491237,3.78870357 C118.422332,3.80190822 117.977055,3.00912963 118.155405,1.4103678 C117.371622,2.98272034 116.391892,3.7688966 115.216216,3.7688966 C114.040541,3.7688966 113.648649,3.1792644 114.040541,2 C113.256757,3.57235254 112.472973,4.16198474 111.689189,3.7688966 C110.905405,3.37580847 110.317568,2.5896322 109.925676,1.4103678 C109.533784,2.98272034 108.75,3.7688966 107.574324,3.7688966 C106.398649,3.7688966 105.614865,3.37580847 105.222973,2.5896322 C105.614865,3.37580847 105.222973,3.7688966 104.047297,3.7688966 C102.871622,3.7688966 102.440427,3.14794425 102.753714,1.90603955 C102.440427,3.54103239 101.5,4.75161694 99.9324324,5.53779321 C98.3648649,6.32396948 97.4578423,5.85467909 97.2113648,4.12992205 C96.6740585,5.06850282 95.4256757,6.32396948 93.4662162,7.89632201 C91.5067568,9.46867455 89.5472973,9.46867455 87.5878378,7.89632201 C88.3716216,9.07558642 88.1756757,10.0583068 87,10.844483 C85.8243243,11.6306593 85.0405405,11.2375712 84.6486486,9.66521862 C84.1219385,11.3996286 83.7300466,12.382349 83.472973,12.6133796 C82.4517201,13.531174 80.9611088,13.312087 79.0011392,11.9561185 C80.0229023,13.1804689 79.75,14.5788203 78.1824324,16.1511728 C76.6148649,17.7235254 75.3837839,17.2339497 74.4891894,14.6824457 C74.991892,16.0546853 74.8513514,17.1338932 74.0675676,17.9200694 C73.2837838,18.7062457 72.6959459,18.5097016 72.3040541,17.3304372 C72.6959459,18.5097016 72.5,19.688966 71.7162162,20.8682304 C70.9324324,22.0474949 69.9527027,21.4578626 68.777027,19.0993338 C68.9394472,21.3101429 68.9394472,22.4894073 68.777027,22.6371271 C68.5799896,22.8163309 67.9690783,22.7353601 66.9442931,22.3942145 C66.8128418,24.5135604 66.6399694,25.7737957 66.4256757,26.1749203 C66.3114901,26.388658 66.0148535,25.922056 65.5357659,24.7751144 C65.1794025,25.4665844 64.8882012,25.9331864 64.6621622,26.1749203 C64.4130181,26.4413635 63.6817641,25.7090136 63.4374313,25.979671 C63.0083641,26.4549662 63.9004141,29.2246043 63.4864865,29.7127135 C63.1731302,30.0822275 62.2751937,29.8820028 60.792677,29.1120393 C61.0209824,31.0848413 60.9391892,32.2677863 60.5472973,32.6608745 C60.1554054,33.0539626 58.5878378,33.4470507 55.8445946,33.8401389 C57.8040541,34.6263151 58.3918919,35.6090355 57.6081081,36.7882999 C56.8243243,37.9675643 56.0405405,37.9675643 55.2567568,36.7882999 C55.4659141,39.1408238 55.4659141,40.5166322 55.2567568,40.9157253 C55.0716484,41.2689304 54.5615437,41.3384233 53.7264424,41.1242039 C53.7977677,42.8217726 53.7200346,43.9315441 53.4932432,44.4535185 C53.3049267,44.8869406 52.7549859,45.2077314 51.8434207,45.415891 L51.2457335,47.0080976 C51.7172701,49.1577368 51.8786022,50.4681951 51.7297297,50.9394727 C51.568266,51.4506099 50.9440341,51.6144501 49.8570341,51.4309933 C50.415102,52.6725235 50.647442,53.4914036 50.5540541,53.8876337 C50.4489442,54.333598 49.9215125,54.7786938 48.971759,55.2229211 C50.0266224,56.6912583 50.5540541,58.0150591 50.5540541,59.1943235 C50.5540541,60.3735879 49.7702703,60.7666761 48.2027027,60.3735879 C49.7702703,61.1597642 50.5540541,62.1424846 50.5540541,63.321749 C50.5540541,64.5010134 49.7702703,65.0906456 48.2027027,65.0906456 C50.1621622,65.4837337 51.1418919,66.0733659 51.1418919,66.8595422 C51.1418919,67.6457184 50.3581081,68.4318947 48.7905405,69.218071 C49.9662162,68.8249828 50.5540541,69.218071 50.5540541,70.3973354 C50.5540541,71.5765998 49.9662162,72.9524082 48.7905405,74.5247608 C50.6905628,74.7155598 51.6702926,75.1086479 51.7297297,75.7040252 C51.7750892,76.1583875 50.9913054,76.9445638 49.3783784,78.062554 C51.3378378,78.062554 52.3175676,78.8487303 52.3175676,80.4210828 C52.3175676,81.9934353 51.5337838,83.1726997 49.9662162,83.958876 C51.5337838,83.958876 52.5135135,84.5485082 52.9054054,85.7277726 C53.2972973,86.907037 52.7094595,87.8897574 51.1418919,88.6759336 C52.7094595,88.2828455 53.6891892,88.4793896 54.0810811,89.2655658 C54.472973,90.0517421 53.8851351,90.6413743 52.3175676,91.0344624 C54.160564,91.1426908 55.1402937,91.3392348 55.2567568,91.6240946 C55.3811775,91.9284184 54.9892856,92.9111387 54.0810811,94.5722556 C55.6486486,93.3929912 56.6283784,93.3929912 57.0202703,94.5722556 C57.4121622,95.75152 57.0202703,97.1273285 55.8445946,98.699681 C57.8040541,97.9135048 58.9797297,97.9135048 59.3716216,98.699681 C59.7635135,99.4858573 59.1756757,101.05821 57.6081081,103.416739 C58,102.237474 59.1756757,102.237474 61.1351351,103.416739 C62.5395662,104.26197 62.3436203,105.441234 60.5472973,106.954532 C62.5067568,105.775267 63.6824324,105.775267 64.0743243,106.954532 C64.4662162,108.133796 64.2702703,109.313061 63.4864865,110.492325 C64.4946536,110.216574 65.0824914,110.216574 65.25,110.492325 C65.3908634,110.724214 65.3908634,111.313846 65.25,112.261222 C65.61212,111.812403 65.8422232,111.591354 65.9403094,111.598073 C67.0135135,111.671589 67.0135135,111.671589 67.0135135,112.850854 C67.0135135,113.63703 66.8175676,114.030118 66.4256757,114.030118 C67.4517226,113.475728 68.0395604,113.279184 68.1891892,113.440486 C68.445984,113.717315 67.9239814,115.549651 68.1891892,115.799015 C68.3768721,115.975485 69.9527027,112.850854 71.7162162,115.209383 C72.8918919,116.781735 73.0878378,118.157544 72.3040541,119.336808 C73.6104595,118.222804 74.3942433,117.829716 74.6554054,118.157544 C75.027974,118.625216 74.3329343,120.056363 74.6554054,120.516073 C74.6797294,120.550748 75.369033,118.180049 76.4189189,118.157544 C76.5678861,118.15435 76.959778,119.137071 77.5945946,121.105705 C77.5938453,120.291486 77.7959858,119.871849 78.2010161,119.846793 C78.5578156,119.824722 78.9440344,119.84524 79.3581081,119.92644 C79.6373667,119.981203 79.6373667,120.767379 79.3581081,122.284969 C80.6881979,121.084676 81.4719817,120.495043 81.7094595,120.516073 C83.0739742,120.636903 83.472973,121.105705 84.0608108,121.695337 C84.4527027,122.088425 84.8445946,123.071145 85.2364865,124.643498 C85.6283784,123.464234 86.2162162,123.071145 87,123.464234 C87.7837838,123.857322 88.5675676,125.23313 89.3513514,127.591659 C89.3513514,125.23313 89.7432432,124.25041 90.527027,124.643498 C91.3108108,125.036586 91.7027027,125.822762 91.7027027,127.002027 C92.4824611,126.08931 93.0678657,125.699947 93.4589162,125.833938 C94.0454647,126.034915 94.6357807,126.227785 95.2297297,126.412395 C95.5602062,126.515113 94.8966478,128.084561 95.2297297,128.181291 C95.6658845,128.307954 96.2537223,128.504499 96.9932432,128.770923 C97.777027,127.591659 98.7567568,127.198571 99.9324324,127.591659 C101.58781,128.145136 100.020242,131.682929 95.2297297,138.205039 C109.050768,140.170479 116.692659,141.1532 118.155405,141.1532 Z" id="Oval"></path>
                <path d="M55.9963768,148.46913 C61.4100935,146.849505 67.5905805,144.804076 74.5378378,142.33284 C93.7812973,135.487677 104.635135,139.221402 119.415058,139.221402 C134.194981,139.221402 157.849575,138.531341 169.969112,142.610097 C182.088649,146.688854 189.40192,153.059543 195.745297,164.112906 C199.974216,171.481815 201.235436,181.483599 199.528958,194.118259 C194.965871,231.997857 193.174365,260.914719 194.15444,280.868846 C195.134516,300.822973 199.389342,322.058794 206.918919,344.576309 L43.8359073,344.576309 C38.9092664,324.997183 36.4459459,303.761362 36.4459459,280.868846 C36.4459459,257.97633 38.9092664,224.767121 43.8359073,181.241218 L43.8689301,164.721906 C43.8839229,157.222365 48.8114672,150.618644 55.9963768,148.46913 Z" id="Rectangle"></path>
                <path d="M197.513514,168.276281 C206.32033,182.127726 214.55006,195.099635 222.202703,207.192006 C229.855345,219.284377 237.632892,231.606468 245.535343,244.158278 C258.324985,227.777084 268.182573,215.454993 275.108108,207.192006 C282.033643,198.929019 292.222832,187.332919 305.675676,172.403706 L326.837838,203.654213 C319.089222,217.693518 312.035168,228.699986 305.675676,236.673616 C299.316184,244.647246 290.106724,254.670994 278.047297,266.744858 C264.095119,279.716767 253.318092,286.202721 245.716216,286.202721 C238.114341,286.202721 229.296773,282.27184 219.263514,274.410077 L162.831081,226.649869 L197.513514,168.276281 Z" id="Path-3"></path>
                <path d="M305.975299,173.534641 C308.671913,168.091162 310.694374,156.523768 314.065141,150.399853 C316.312319,146.317243 321.480829,139.286082 329.57067,129.30637 C335.413334,125.447736 338.334665,125.447736 338.334665,129.30637 C338.334665,133.165004 335.413334,139.288918 329.57067,147.678113 C333.289271,148.595011 336.660038,150.409504 339.682972,153.121593 C344.217373,157.189727 349.12112,159.925942 347.772813,164.008552 C344.595281,173.62997 336.954875,184.290117 324.851596,195.988994 C321.956631,199.073769 320.071414,200.253033 319.195946,199.526788 C307.79886,190.07232 304.363296,176.788688 305.975299,173.534641 Z" id="Path-4"></path>
                <path d="M44.6756757,162.969591 C28.6508788,211.135072 17.9820607,246.016164 12.6692215,267.612867 C7.35638224,289.20957 3.13330842,314.864051 0,344.576309 L36.4459459,344.576309 L53.4932432,263.207065 L44.6756757,162.969591 Z" id="Path-5"></path>
            </g>
            <line x1="0" y1="344.576309" x2="247" y2="344.576309" id="left-line" stroke="#242D3B" stroke-width="2" stroke-linecap="square"></line>
        </g>
        <g id="right" transform="translate(516.000000, 192.000000)">
            <g id="right-person" transform="translate(8.000000, 0.000000)" fill="#242D3B">
                <path d="M89.494421,159.879442 L167.741477,153.420381 C157.543865,145.199759 151.268412,139.523615 148.915117,136.39195 C146.561822,133.260284 144.404635,128.171327 142.443556,121.12508 C148.147737,118.718268 151.85744,116.57619 153.572667,114.698844 C154.61317,113.559995 152.663893,120.290323 153.621707,119.363518 C154.186627,118.816887 155.933856,116.004736 156.563326,114.078832 C156.980008,112.803965 157.238551,112.377443 157.406213,112.439702 C157.921268,112.630963 157.578669,117.434913 158.328297,116.427581 C160.893834,112.980073 162.575057,94.797965 163.623211,81.7835308 C163.697361,80.8628362 164.285685,80.8628362 165.388182,81.7835308 C164.211534,72.6731844 163.623211,67.1927696 163.623211,65.3422864 C163.623211,61.9102735 163.727473,58.802999 163.875392,55.97814 C163.950914,54.535863 165.88629,57.2479606 165.976505,55.9472896 C166.801255,44.0565714 157.81793,27.8952593 153.033383,23.0648008 C151.327066,21.3421101 158.412569,11.908242 153.033383,11.908242 C151.783046,11.908242 134.977765,10.3964816 140.090261,7.79793095 C142.678751,6.48226824 120.887048,2.93103745 121.852226,1.92605794 C123.2206,0.501254834 114.060182,1.51517188 113.615694,0.751683343 C112.378456,-1.37349498 97.9399523,1.79190578 95.965982,0.751683343 C94.0753933,-0.244599508 88.4919639,2.52284249 86.5528024,3.10043254 C84.4380061,3.7303364 81.4893884,8.5664619 79.3669617,11.6239348 C77.9308346,13.6927553 75.3743479,13.051651 73.6096804,14.2569912 C69.0811377,17.3501714 65.1533157,25.0032862 63.608177,31.285423 C62.659215,35.1436586 67.1381194,63.962366 67.1381194,68.8654102 C67.1381194,77.1475794 62.9160725,91.1573001 63.608177,99.3991498 C64.2074371,106.535372 64.7848245,116.427581 69.4914143,119.363518 C72.6291408,121.320809 77.5318386,122.886642 84.1995075,124.061016 C86.5528024,132.847919 87.7294498,139.502708 87.7294498,144.025385 C87.7294498,147.548508 88.3177735,152.833194 89.494421,159.879442 Z" id="Oval"></path>
                <path d="M80.6695651,165.164127 C82.2127501,163.795057 92.1164099,157.772204 97.7309532,156.943505 C106.830852,155.600372 128.794938,153.251623 163.623211,149.897258 C169.193877,153.65134 172.919927,156.00009 174.801361,156.943505 C181.084721,160.094197 182.039008,161.599371 185.979512,165.164127 C190.357424,169.124583 193.49515,176.953747 195.392692,188.651619 C198.149752,203.883428 199.3264,218.954569 198.922634,233.865042 C198.316986,256.230751 188.921131,294.932521 188.921131,316.071264 C188.921131,330.163759 190.293886,343.473338 193.039397,356 L37.7219331,355.412813 C36.5452856,336.622819 38.8985805,317.441367 44.7818178,297.868457 C48.5232764,285.421019 57.1229896,264.932277 58.9015872,229.167543 C59.0475271,226.232928 67.928291,188.79832 68.3147668,186.890058 C70.1667921,177.745502 75.3746516,169.861626 80.6695651,165.164127 Z" id="Rectangle"></path>
                <path d="M114.204018,195.11068 C86.5846343,209.051509 70.3076779,217.663589 65.3731482,220.946921 C60.4386185,224.230253 55.5359208,229.710668 50.665055,237.388165 C45.9104779,227.439124 42.9688593,216.869752 41.8401991,205.680051 C40.711539,194.49035 40.711539,175.896086 41.8401991,149.897258 C48.1679499,138.872712 51.6978922,132.413651 52.4300262,130.520077 C54.361052,125.525716 54.2621011,122.622837 54.1949974,120.537893 C54.1391681,118.80325 58.3132635,108.794147 57.136616,104.683835 C56.1616267,101.277964 55.8459494,101.062966 52.4300262,99.9863371 C50.9498102,99.5198034 46.5081809,99.4508814 44.193494,100.573524 C41.8788072,101.696167 41.0753873,104.174946 40.075228,103.509461 C35.319359,100.345006 36.5452856,100.573524 33.0153432,100.573524 C29.4854009,100.573524 23.8355388,108.794147 23.0138399,108.794147 C14.7773077,108.794147 12.4870018,111.944087 11.2473654,114.66602 C8.30574673,121.12508 4.75624829,142.116616 4.18748064,146.374134 C3.80830221,149.212479 3.80830221,152.148415 4.18748064,155.181943 C-0.126893353,205.680051 -1.1074329,239.541185 1.24586201,256.765346 C4.77580437,282.601587 4.88487116,297.607252 12.4240128,305.501892 C17.4501072,310.764986 32.7465241,312.526547 58.3132635,310.786578 C77.4363948,300.280286 90.7717326,292.84258 98.3192769,288.47346 C105.866821,284.104341 111.161735,272.947782 114.204018,255.003784 L114.204018,195.11068 Z" id="Path-6"></path>
            </g>
            <line x1="-1.98951966e-13" y1="356" x2="224" y2="356" id="right-line" stroke="#242D3B" stroke-width="2" stroke-linecap="square"></line>
        </g>
        <rect id="Rectangle" fill="#E0E0E4" x="108" y="41" width="73" height="11" rx="2"></rect>
        <rect id="Rectangle" fill="#E0E0E4" x="277" y="41" width="66" height="11" rx="2"></rect>
        <rect id="Rectangle" fill="#E0E0E4" x="432" y="41" width="80" height="11" rx="2"></rect>
        <rect id="Rectangle" fill="#E0E0E4" x="623" y="41" width="50" height="11" rx="2"></rect>
    </g>
</svg>